M48
;DRILL file {kicad (2015-04-22 BZR 5620)-product} date 06/08/2015 11:32:46
;FORMAT={-:-/ absolute / inch / decimal}
FMAT,2
INCH,TZ
T1C0.024
T2C0.025
T3C0.032
T4C0.040
%
G90
G05
M72
T1
X8.1855Y-4.2725
X8.2445Y-4.2725
T2
X8.075Y-4.39
X8.14Y-4.505
X8.225Y-4.55
X8.28Y-3.92
X8.53Y-4.695
T3
X7.5225Y-3.955
X7.8225Y-3.955
T4
X7.975Y-4.08
X7.975Y-4.18
X7.975Y-4.28
X7.975Y-4.38
X7.975Y-4.48
X7.975Y-4.58
X8.425Y-4.08
X8.425Y-4.18
X8.425Y-4.28
X8.425Y-4.38
X8.425Y-4.48
X8.425Y-4.58
T0
M30
