G04 #@! TF.FileFunction,Soldermask,Top*
%FSLAX46Y46*%
G04 Gerber Fmt 4.6, Leading zero omitted, Abs format (unit mm)*
G04 Created by KiCad (PCBNEW (2015-04-22 BZR 5620)-product) date 02/01/2016 08:54:23*
%MOMM*%
G01*
G04 APERTURE LIST*
%ADD10C,0.100000*%
%ADD11O,2.032000X1.727200*%
%ADD12R,1.000000X1.250000*%
%ADD13R,0.750000X1.200000*%
%ADD14R,1.397000X1.397000*%
%ADD15C,1.397000*%
%ADD16R,1.300000X0.700000*%
%ADD17R,0.700000X1.300000*%
%ADD18R,0.600000X1.550000*%
%ADD19C,1.000760*%
G04 APERTURE END LIST*
D10*
D11*
X202565000Y-103632000D03*
X202565000Y-106172000D03*
X202565000Y-108712000D03*
X202565000Y-111252000D03*
X202565000Y-113792000D03*
X202565000Y-116332000D03*
X213995000Y-103632000D03*
X213995000Y-106172000D03*
X213995000Y-108712000D03*
X213995000Y-111252000D03*
X213995000Y-113792000D03*
X213995000Y-116332000D03*
D12*
X212995000Y-119824500D03*
X214995000Y-119824500D03*
D13*
X211074000Y-109281000D03*
X211074000Y-107381000D03*
X206248000Y-109217500D03*
X206248000Y-107317500D03*
D12*
X207565500Y-100330000D03*
X205565500Y-100330000D03*
D14*
X198691500Y-100457000D03*
D15*
X191071500Y-100457000D03*
D16*
X209486500Y-123187500D03*
X209486500Y-121287500D03*
X206946500Y-123187500D03*
X206946500Y-121287500D03*
X204406500Y-123187500D03*
X204406500Y-121287500D03*
D17*
X203515000Y-100393500D03*
X201615000Y-100393500D03*
D18*
X210058000Y-117381000D03*
X208788000Y-117381000D03*
X207518000Y-117381000D03*
X206248000Y-117381000D03*
X206248000Y-111981000D03*
X207518000Y-111981000D03*
X208788000Y-111981000D03*
X210058000Y-111981000D03*
D10*
G36*
X200963564Y-121182515D02*
X196633436Y-123682515D01*
X194133436Y-119352387D01*
X198463564Y-116852387D01*
X200963564Y-121182515D01*
X200963564Y-121182515D01*
G37*
G36*
X191946564Y-105564613D02*
X187616436Y-108064613D01*
X185116436Y-103734485D01*
X189446564Y-101234485D01*
X191946564Y-105564613D01*
X191946564Y-105564613D01*
G37*
G36*
X196455064Y-113373564D02*
X192124936Y-115873564D01*
X189624936Y-111543436D01*
X193955064Y-109043436D01*
X196455064Y-113373564D01*
X196455064Y-113373564D01*
G37*
D19*
X207911700Y-108521500D03*
X209410300Y-108521500D03*
M02*
