G04 #@! TF.FileFunction,Copper,L2,Bot,Signal*
%FSLAX46Y46*%
G04 Gerber Fmt 4.6, Leading zero omitted, Abs format (unit mm)*
G04 Created by KiCad (PCBNEW (2015-04-22 BZR 5620)-product) date 02/01/2016 08:54:23*
%MOMM*%
G01*
G04 APERTURE LIST*
%ADD10C,0.100000*%
%ADD11C,0.200000*%
%ADD12O,2.032000X1.727200*%
%ADD13R,1.397000X1.397000*%
%ADD14C,1.397000*%
%ADD15C,1.000760*%
%ADD16C,0.889000*%
%ADD17C,0.254000*%
G04 APERTURE END LIST*
D10*
D11*
X229473143Y-100331714D02*
X229235048Y-100998381D01*
X228996952Y-100331714D01*
X228092190Y-100998381D02*
X228663619Y-100998381D01*
X228377905Y-100998381D02*
X228377905Y-99998381D01*
X228473143Y-100141238D01*
X228568381Y-100236476D01*
X228663619Y-100284095D01*
X227663619Y-100903143D02*
X227616000Y-100950762D01*
X227663619Y-100998381D01*
X227711238Y-100950762D01*
X227663619Y-100903143D01*
X227663619Y-100998381D01*
X226996953Y-99998381D02*
X226901714Y-99998381D01*
X226806476Y-100046000D01*
X226758857Y-100093619D01*
X226711238Y-100188857D01*
X226663619Y-100379333D01*
X226663619Y-100617429D01*
X226711238Y-100807905D01*
X226758857Y-100903143D01*
X226806476Y-100950762D01*
X226901714Y-100998381D01*
X226996953Y-100998381D01*
X227092191Y-100950762D01*
X227139810Y-100903143D01*
X227187429Y-100807905D01*
X227235048Y-100617429D01*
X227235048Y-100379333D01*
X227187429Y-100188857D01*
X227139810Y-100093619D01*
X227092191Y-100046000D01*
X226996953Y-99998381D01*
X229425524Y-101693619D02*
X229377905Y-101646000D01*
X229282667Y-101598381D01*
X229044571Y-101598381D01*
X228949333Y-101646000D01*
X228901714Y-101693619D01*
X228854095Y-101788857D01*
X228854095Y-101884095D01*
X228901714Y-102026952D01*
X229473143Y-102598381D01*
X228854095Y-102598381D01*
X228235048Y-101598381D02*
X228139809Y-101598381D01*
X228044571Y-101646000D01*
X227996952Y-101693619D01*
X227949333Y-101788857D01*
X227901714Y-101979333D01*
X227901714Y-102217429D01*
X227949333Y-102407905D01*
X227996952Y-102503143D01*
X228044571Y-102550762D01*
X228139809Y-102598381D01*
X228235048Y-102598381D01*
X228330286Y-102550762D01*
X228377905Y-102503143D01*
X228425524Y-102407905D01*
X228473143Y-102217429D01*
X228473143Y-101979333D01*
X228425524Y-101788857D01*
X228377905Y-101693619D01*
X228330286Y-101646000D01*
X228235048Y-101598381D01*
X226949333Y-102598381D02*
X227520762Y-102598381D01*
X227235048Y-102598381D02*
X227235048Y-101598381D01*
X227330286Y-101741238D01*
X227425524Y-101836476D01*
X227520762Y-101884095D01*
X226044571Y-101598381D02*
X226520762Y-101598381D01*
X226568381Y-102074571D01*
X226520762Y-102026952D01*
X226425524Y-101979333D01*
X226187428Y-101979333D01*
X226092190Y-102026952D01*
X226044571Y-102074571D01*
X225996952Y-102169810D01*
X225996952Y-102407905D01*
X226044571Y-102503143D01*
X226092190Y-102550762D01*
X226187428Y-102598381D01*
X226425524Y-102598381D01*
X226520762Y-102550762D01*
X226568381Y-102503143D01*
X225568381Y-102217429D02*
X224806476Y-102217429D01*
X224139810Y-101598381D02*
X224044571Y-101598381D01*
X223949333Y-101646000D01*
X223901714Y-101693619D01*
X223854095Y-101788857D01*
X223806476Y-101979333D01*
X223806476Y-102217429D01*
X223854095Y-102407905D01*
X223901714Y-102503143D01*
X223949333Y-102550762D01*
X224044571Y-102598381D01*
X224139810Y-102598381D01*
X224235048Y-102550762D01*
X224282667Y-102503143D01*
X224330286Y-102407905D01*
X224377905Y-102217429D01*
X224377905Y-101979333D01*
X224330286Y-101788857D01*
X224282667Y-101693619D01*
X224235048Y-101646000D01*
X224139810Y-101598381D01*
X223235048Y-102026952D02*
X223330286Y-101979333D01*
X223377905Y-101931714D01*
X223425524Y-101836476D01*
X223425524Y-101788857D01*
X223377905Y-101693619D01*
X223330286Y-101646000D01*
X223235048Y-101598381D01*
X223044571Y-101598381D01*
X222949333Y-101646000D01*
X222901714Y-101693619D01*
X222854095Y-101788857D01*
X222854095Y-101836476D01*
X222901714Y-101931714D01*
X222949333Y-101979333D01*
X223044571Y-102026952D01*
X223235048Y-102026952D01*
X223330286Y-102074571D01*
X223377905Y-102122190D01*
X223425524Y-102217429D01*
X223425524Y-102407905D01*
X223377905Y-102503143D01*
X223330286Y-102550762D01*
X223235048Y-102598381D01*
X223044571Y-102598381D01*
X222949333Y-102550762D01*
X222901714Y-102503143D01*
X222854095Y-102407905D01*
X222854095Y-102217429D01*
X222901714Y-102122190D01*
X222949333Y-102074571D01*
X223044571Y-102026952D01*
X222425524Y-102217429D02*
X221663619Y-102217429D01*
X220996953Y-101598381D02*
X220901714Y-101598381D01*
X220806476Y-101646000D01*
X220758857Y-101693619D01*
X220711238Y-101788857D01*
X220663619Y-101979333D01*
X220663619Y-102217429D01*
X220711238Y-102407905D01*
X220758857Y-102503143D01*
X220806476Y-102550762D01*
X220901714Y-102598381D01*
X220996953Y-102598381D01*
X221092191Y-102550762D01*
X221139810Y-102503143D01*
X221187429Y-102407905D01*
X221235048Y-102217429D01*
X221235048Y-101979333D01*
X221187429Y-101788857D01*
X221139810Y-101693619D01*
X221092191Y-101646000D01*
X220996953Y-101598381D01*
X219806476Y-101598381D02*
X219996953Y-101598381D01*
X220092191Y-101646000D01*
X220139810Y-101693619D01*
X220235048Y-101836476D01*
X220282667Y-102026952D01*
X220282667Y-102407905D01*
X220235048Y-102503143D01*
X220187429Y-102550762D01*
X220092191Y-102598381D01*
X219901714Y-102598381D01*
X219806476Y-102550762D01*
X219758857Y-102503143D01*
X219711238Y-102407905D01*
X219711238Y-102169810D01*
X219758857Y-102074571D01*
X219806476Y-102026952D01*
X219901714Y-101979333D01*
X220092191Y-101979333D01*
X220187429Y-102026952D01*
X220235048Y-102074571D01*
X220282667Y-102169810D01*
D12*
X202565000Y-103632000D03*
X202565000Y-106172000D03*
X202565000Y-108712000D03*
X202565000Y-111252000D03*
X202565000Y-113792000D03*
X202565000Y-116332000D03*
X213995000Y-103632000D03*
X213995000Y-106172000D03*
X213995000Y-108712000D03*
X213995000Y-111252000D03*
X213995000Y-113792000D03*
X213995000Y-116332000D03*
D13*
X198691500Y-100457000D03*
D14*
X191071500Y-100457000D03*
D15*
X207911700Y-108521500D03*
X209410300Y-108521500D03*
D16*
X210312000Y-99568000D03*
X216662000Y-119253000D03*
X205105000Y-111506000D03*
X206756000Y-114427000D03*
X208915000Y-115570000D03*
D17*
X207772000Y-114427000D02*
X206756000Y-114427000D01*
X208915000Y-115570000D02*
X207772000Y-114427000D01*
G36*
X232360000Y-104106495D02*
X231898177Y-108816525D01*
X230540031Y-113314924D01*
X228334008Y-117463850D01*
X225364132Y-121105276D01*
X221743527Y-124100501D01*
X217610103Y-126335435D01*
X215653951Y-126940965D01*
X215653951Y-116342462D01*
X215627444Y-116051190D01*
X215544866Y-115770615D01*
X215409363Y-115511422D01*
X215226097Y-115283485D01*
X215002048Y-115095485D01*
X214942413Y-115062700D01*
X214984701Y-115040216D01*
X215211353Y-114855363D01*
X215397784Y-114630006D01*
X215536892Y-114372731D01*
X215623379Y-114093335D01*
X215653951Y-113802462D01*
X215627444Y-113511190D01*
X215544866Y-113230615D01*
X215409363Y-112971422D01*
X215226097Y-112743485D01*
X215002048Y-112555485D01*
X214942413Y-112522700D01*
X214984701Y-112500216D01*
X215211353Y-112315363D01*
X215397784Y-112090006D01*
X215536892Y-111832731D01*
X215623379Y-111553335D01*
X215653951Y-111262462D01*
X215627444Y-110971190D01*
X215544866Y-110690615D01*
X215409363Y-110431422D01*
X215226097Y-110203485D01*
X215002048Y-110015485D01*
X214942413Y-109982700D01*
X214984701Y-109960216D01*
X215211353Y-109775363D01*
X215397784Y-109550006D01*
X215536892Y-109292731D01*
X215623379Y-109013335D01*
X215653951Y-108722462D01*
X215627444Y-108431190D01*
X215544866Y-108150615D01*
X215409363Y-107891422D01*
X215226097Y-107663485D01*
X215002048Y-107475485D01*
X214942413Y-107442700D01*
X214984701Y-107420216D01*
X215211353Y-107235363D01*
X215397784Y-107010006D01*
X215536892Y-106752731D01*
X215623379Y-106473335D01*
X215653951Y-106182462D01*
X215627444Y-105891190D01*
X215544866Y-105610615D01*
X215409363Y-105351422D01*
X215226097Y-105123485D01*
X215002048Y-104935485D01*
X214942413Y-104902700D01*
X214984701Y-104880216D01*
X215211353Y-104695363D01*
X215397784Y-104470006D01*
X215536892Y-104212731D01*
X215623379Y-103933335D01*
X215653951Y-103642462D01*
X215627444Y-103351190D01*
X215544866Y-103070615D01*
X215409363Y-102811422D01*
X215226097Y-102583485D01*
X215002048Y-102395485D01*
X214745749Y-102254584D01*
X214466964Y-102166148D01*
X214176312Y-102133546D01*
X214155388Y-102133400D01*
X213834612Y-102133400D01*
X213543532Y-102161941D01*
X213263540Y-102246475D01*
X213005299Y-102383784D01*
X212778647Y-102568637D01*
X212592216Y-102793994D01*
X212453108Y-103051269D01*
X212366621Y-103330665D01*
X212336049Y-103621538D01*
X212362556Y-103912810D01*
X212445134Y-104193385D01*
X212580637Y-104452578D01*
X212763903Y-104680515D01*
X212987952Y-104868515D01*
X213047586Y-104901299D01*
X213005299Y-104923784D01*
X212778647Y-105108637D01*
X212592216Y-105333994D01*
X212453108Y-105591269D01*
X212366621Y-105870665D01*
X212336049Y-106161538D01*
X212362556Y-106452810D01*
X212445134Y-106733385D01*
X212580637Y-106992578D01*
X212763903Y-107220515D01*
X212987952Y-107408515D01*
X213047586Y-107441299D01*
X213005299Y-107463784D01*
X212778647Y-107648637D01*
X212592216Y-107873994D01*
X212453108Y-108131269D01*
X212366621Y-108410665D01*
X212336049Y-108701538D01*
X212362556Y-108992810D01*
X212445134Y-109273385D01*
X212580637Y-109532578D01*
X212763903Y-109760515D01*
X212987952Y-109948515D01*
X213047586Y-109981299D01*
X213005299Y-110003784D01*
X212778647Y-110188637D01*
X212592216Y-110413994D01*
X212453108Y-110671269D01*
X212366621Y-110950665D01*
X212336049Y-111241538D01*
X212362556Y-111532810D01*
X212445134Y-111813385D01*
X212580637Y-112072578D01*
X212763903Y-112300515D01*
X212987952Y-112488515D01*
X213047586Y-112521299D01*
X213005299Y-112543784D01*
X212778647Y-112728637D01*
X212592216Y-112953994D01*
X212453108Y-113211269D01*
X212366621Y-113490665D01*
X212336049Y-113781538D01*
X212362556Y-114072810D01*
X212445134Y-114353385D01*
X212580637Y-114612578D01*
X212763903Y-114840515D01*
X212987952Y-115028515D01*
X213047586Y-115061299D01*
X213005299Y-115083784D01*
X212778647Y-115268637D01*
X212592216Y-115493994D01*
X212453108Y-115751269D01*
X212366621Y-116030665D01*
X212336049Y-116321538D01*
X212362556Y-116612810D01*
X212445134Y-116893385D01*
X212580637Y-117152578D01*
X212763903Y-117380515D01*
X212987952Y-117568515D01*
X213244251Y-117709416D01*
X213523036Y-117797852D01*
X213813688Y-117830454D01*
X213834612Y-117830600D01*
X214155388Y-117830600D01*
X214446468Y-117802059D01*
X214726460Y-117717525D01*
X214984701Y-117580216D01*
X215211353Y-117395363D01*
X215397784Y-117170006D01*
X215536892Y-116912731D01*
X215623379Y-116633335D01*
X215653951Y-116342462D01*
X215653951Y-126940965D01*
X213121292Y-127724955D01*
X210545729Y-127995656D01*
X210545729Y-108410170D01*
X210502481Y-108191751D01*
X210417632Y-107985892D01*
X210294414Y-107800434D01*
X210137520Y-107642441D01*
X209952927Y-107517932D01*
X209747666Y-107431648D01*
X209529554Y-107386876D01*
X209306900Y-107385321D01*
X209088184Y-107427044D01*
X208881738Y-107510453D01*
X208695424Y-107632374D01*
X208661709Y-107665389D01*
X208638920Y-107642441D01*
X208454327Y-107517932D01*
X208249066Y-107431648D01*
X208030954Y-107386876D01*
X207808300Y-107385321D01*
X207589584Y-107427044D01*
X207383138Y-107510453D01*
X207196824Y-107632374D01*
X207037740Y-107788160D01*
X206911944Y-107971880D01*
X206824230Y-108176534D01*
X206777936Y-108394328D01*
X206774827Y-108616966D01*
X206815022Y-108835967D01*
X206896988Y-109042991D01*
X207017605Y-109230151D01*
X207172277Y-109390319D01*
X207355114Y-109517394D01*
X207559151Y-109606536D01*
X207776616Y-109654349D01*
X207999227Y-109659012D01*
X208218504Y-109620347D01*
X208426094Y-109539828D01*
X208614092Y-109420521D01*
X208658867Y-109377882D01*
X208670877Y-109390319D01*
X208853714Y-109517394D01*
X209057751Y-109606536D01*
X209275216Y-109654349D01*
X209497827Y-109659012D01*
X209717104Y-109620347D01*
X209924694Y-109539828D01*
X210112692Y-109420521D01*
X210273936Y-109266971D01*
X210402284Y-109085025D01*
X210492848Y-108881616D01*
X210542178Y-108664489D01*
X210545729Y-108410170D01*
X210545729Y-127995656D01*
X209994546Y-128053587D01*
X209994546Y-115464150D01*
X209953426Y-115256481D01*
X209872754Y-115060753D01*
X209755600Y-114884423D01*
X209606428Y-114734207D01*
X209430921Y-114615825D01*
X209235761Y-114533788D01*
X209028384Y-114491219D01*
X208913043Y-114490413D01*
X208310815Y-113888185D01*
X208256400Y-113843487D01*
X208202505Y-113798264D01*
X208198997Y-113796335D01*
X208195897Y-113793789D01*
X208133831Y-113760510D01*
X208072184Y-113726619D01*
X208068363Y-113725407D01*
X208064833Y-113723514D01*
X207997535Y-113702939D01*
X207930429Y-113681652D01*
X207926445Y-113681205D01*
X207922615Y-113680034D01*
X207852627Y-113672924D01*
X207782639Y-113665074D01*
X207774802Y-113665019D01*
X207774660Y-113665005D01*
X207774526Y-113665017D01*
X207772000Y-113665000D01*
X207520708Y-113665000D01*
X207447428Y-113591207D01*
X207271921Y-113472825D01*
X207076761Y-113390788D01*
X206869384Y-113348219D01*
X206657689Y-113346741D01*
X206449738Y-113386410D01*
X206253452Y-113465715D01*
X206076308Y-113581634D01*
X205925054Y-113729753D01*
X205805450Y-113904431D01*
X205722052Y-114099012D01*
X205678037Y-114306087D01*
X205675081Y-114517767D01*
X205713297Y-114725990D01*
X205791230Y-114922825D01*
X205905910Y-115100773D01*
X206052969Y-115253058D01*
X206226807Y-115373879D01*
X206420802Y-115458633D01*
X206627564Y-115504093D01*
X206839219Y-115508526D01*
X207047704Y-115471765D01*
X207245077Y-115395208D01*
X207423822Y-115281773D01*
X207488013Y-115220643D01*
X207835376Y-115568006D01*
X207834081Y-115660767D01*
X207872297Y-115868990D01*
X207950230Y-116065825D01*
X208064910Y-116243773D01*
X208211969Y-116396058D01*
X208385807Y-116516879D01*
X208579802Y-116601633D01*
X208786564Y-116647093D01*
X208998219Y-116651526D01*
X209206704Y-116614765D01*
X209404077Y-116538208D01*
X209582822Y-116424773D01*
X209736130Y-116278780D01*
X209858161Y-116105790D01*
X209944268Y-115912392D01*
X209991170Y-115705952D01*
X209994546Y-115464150D01*
X209994546Y-128053587D01*
X208448084Y-128216127D01*
X204223951Y-127831701D01*
X204223951Y-116342462D01*
X204197444Y-116051190D01*
X204114866Y-115770615D01*
X203979363Y-115511422D01*
X203796097Y-115283485D01*
X203572048Y-115095485D01*
X203512413Y-115062700D01*
X203554701Y-115040216D01*
X203781353Y-114855363D01*
X203967784Y-114630006D01*
X204106892Y-114372731D01*
X204193379Y-114093335D01*
X204223951Y-113802462D01*
X204223951Y-108722462D01*
X204197444Y-108431190D01*
X204114866Y-108150615D01*
X203979363Y-107891422D01*
X203796097Y-107663485D01*
X203572048Y-107475485D01*
X203512413Y-107442700D01*
X203554701Y-107420216D01*
X203781353Y-107235363D01*
X203967784Y-107010006D01*
X204106892Y-106752731D01*
X204193379Y-106473335D01*
X204223951Y-106182462D01*
X204197444Y-105891190D01*
X204114866Y-105610615D01*
X203979363Y-105351422D01*
X203796097Y-105123485D01*
X203572048Y-104935485D01*
X203512413Y-104902700D01*
X203554701Y-104880216D01*
X203781353Y-104695363D01*
X203967784Y-104470006D01*
X204106892Y-104212731D01*
X204193379Y-103933335D01*
X204223951Y-103642462D01*
X204197444Y-103351190D01*
X204114866Y-103070615D01*
X203979363Y-102811422D01*
X203796097Y-102583485D01*
X203572048Y-102395485D01*
X203315749Y-102254584D01*
X203036964Y-102166148D01*
X202746312Y-102133546D01*
X202725388Y-102133400D01*
X202404612Y-102133400D01*
X202113532Y-102161941D01*
X201833540Y-102246475D01*
X201575299Y-102383784D01*
X201348647Y-102568637D01*
X201162216Y-102793994D01*
X201023108Y-103051269D01*
X200936621Y-103330665D01*
X200906049Y-103621538D01*
X200932556Y-103912810D01*
X201015134Y-104193385D01*
X201150637Y-104452578D01*
X201333903Y-104680515D01*
X201557952Y-104868515D01*
X201617586Y-104901299D01*
X201575299Y-104923784D01*
X201348647Y-105108637D01*
X201162216Y-105333994D01*
X201023108Y-105591269D01*
X200936621Y-105870665D01*
X200906049Y-106161538D01*
X200932556Y-106452810D01*
X201015134Y-106733385D01*
X201150637Y-106992578D01*
X201333903Y-107220515D01*
X201557952Y-107408515D01*
X201617586Y-107441299D01*
X201575299Y-107463784D01*
X201348647Y-107648637D01*
X201162216Y-107873994D01*
X201023108Y-108131269D01*
X200936621Y-108410665D01*
X200906049Y-108701538D01*
X200932556Y-108992810D01*
X201015134Y-109273385D01*
X201150637Y-109532578D01*
X201333903Y-109760515D01*
X201557952Y-109948515D01*
X201619872Y-109982555D01*
X201413271Y-110133514D01*
X201214267Y-110349965D01*
X201061314Y-110601081D01*
X200960291Y-110877211D01*
X200957642Y-110892974D01*
X201078783Y-111125000D01*
X202438000Y-111125000D01*
X202438000Y-111105000D01*
X202692000Y-111105000D01*
X202692000Y-111125000D01*
X204051217Y-111125000D01*
X204172358Y-110892974D01*
X204169709Y-110877211D01*
X204068686Y-110601081D01*
X203915733Y-110349965D01*
X203716729Y-110133514D01*
X203511205Y-109983343D01*
X203554701Y-109960216D01*
X203781353Y-109775363D01*
X203967784Y-109550006D01*
X204106892Y-109292731D01*
X204193379Y-109013335D01*
X204223951Y-108722462D01*
X204223951Y-113802462D01*
X204197444Y-113511190D01*
X204114866Y-113230615D01*
X203979363Y-112971422D01*
X203796097Y-112743485D01*
X203572048Y-112555485D01*
X203510127Y-112521444D01*
X203716729Y-112370486D01*
X203915733Y-112154035D01*
X204068686Y-111902919D01*
X204169709Y-111626789D01*
X204172358Y-111611026D01*
X204051217Y-111379000D01*
X202692000Y-111379000D01*
X202692000Y-111399000D01*
X202438000Y-111399000D01*
X202438000Y-111379000D01*
X201078783Y-111379000D01*
X200957642Y-111611026D01*
X200960291Y-111626789D01*
X201061314Y-111902919D01*
X201214267Y-112154035D01*
X201413271Y-112370486D01*
X201618794Y-112520656D01*
X201575299Y-112543784D01*
X201348647Y-112728637D01*
X201162216Y-112953994D01*
X201023108Y-113211269D01*
X200936621Y-113490665D01*
X200906049Y-113781538D01*
X200932556Y-114072810D01*
X201015134Y-114353385D01*
X201150637Y-114612578D01*
X201333903Y-114840515D01*
X201557952Y-115028515D01*
X201617586Y-115061299D01*
X201575299Y-115083784D01*
X201348647Y-115268637D01*
X201162216Y-115493994D01*
X201023108Y-115751269D01*
X200936621Y-116030665D01*
X200906049Y-116321538D01*
X200932556Y-116612810D01*
X201015134Y-116893385D01*
X201150637Y-117152578D01*
X201333903Y-117380515D01*
X201557952Y-117568515D01*
X201814251Y-117709416D01*
X202093036Y-117797852D01*
X202383688Y-117830454D01*
X202404612Y-117830600D01*
X202725388Y-117830600D01*
X203016468Y-117802059D01*
X203296460Y-117717525D01*
X203554701Y-117580216D01*
X203781353Y-117395363D01*
X203967784Y-117170006D01*
X204106892Y-116912731D01*
X204193379Y-116633335D01*
X204223951Y-116342462D01*
X204223951Y-127831701D01*
X203768472Y-127790250D01*
X200028072Y-126689390D01*
X200028072Y-101155500D01*
X200028072Y-99758500D01*
X200019697Y-99655457D01*
X199966227Y-99484459D01*
X199867326Y-99335066D01*
X199730792Y-99219058D01*
X199567389Y-99145581D01*
X199390000Y-99120428D01*
X197993000Y-99120428D01*
X197889957Y-99128803D01*
X197718959Y-99182273D01*
X197569566Y-99281174D01*
X197453558Y-99417708D01*
X197380081Y-99581111D01*
X197354928Y-99758500D01*
X197354928Y-101155500D01*
X197363303Y-101258543D01*
X197416773Y-101429541D01*
X197515674Y-101578934D01*
X197652208Y-101694942D01*
X197815611Y-101768419D01*
X197993000Y-101793572D01*
X199390000Y-101793572D01*
X199493043Y-101785197D01*
X199664041Y-101731727D01*
X199813434Y-101632826D01*
X199929442Y-101496292D01*
X200002919Y-101332889D01*
X200028072Y-101155500D01*
X200028072Y-126689390D01*
X199260702Y-126463541D01*
X195096477Y-124286536D01*
X192405057Y-122122578D01*
X192405057Y-100326244D01*
X192354262Y-100069711D01*
X192254607Y-99827931D01*
X192109888Y-99610111D01*
X191925618Y-99424549D01*
X191708814Y-99278313D01*
X191467735Y-99176973D01*
X191211563Y-99124388D01*
X190950057Y-99122563D01*
X190693176Y-99171565D01*
X190450706Y-99269530D01*
X190231881Y-99412725D01*
X190045037Y-99595695D01*
X189897291Y-99811473D01*
X189794270Y-100051839D01*
X189739899Y-100307637D01*
X189736247Y-100569124D01*
X189783455Y-100826341D01*
X189879725Y-101069489D01*
X190021388Y-101289308D01*
X190203050Y-101477425D01*
X190417791Y-101626674D01*
X190657432Y-101731370D01*
X190912844Y-101787526D01*
X191174300Y-101793003D01*
X191431840Y-101747592D01*
X191675654Y-101653022D01*
X191896457Y-101512897D01*
X192085837Y-101332552D01*
X192236581Y-101118858D01*
X192342948Y-100879955D01*
X192400886Y-100624941D01*
X192405057Y-100326244D01*
X192405057Y-122122578D01*
X191434403Y-121342153D01*
X188413976Y-117742549D01*
X186150239Y-113624826D01*
X184729419Y-109145829D01*
X184202146Y-104445089D01*
X184200000Y-104137653D01*
X184200000Y-99958503D01*
X184218743Y-99767336D01*
X184264532Y-99615678D01*
X184338904Y-99475804D01*
X184439030Y-99353038D01*
X184561093Y-99252059D01*
X184700449Y-99176709D01*
X184851780Y-99129864D01*
X185040782Y-99110000D01*
X218785762Y-99110000D01*
X218785762Y-103581000D01*
X230351000Y-103581000D01*
X230351000Y-99110000D01*
X231511496Y-99110000D01*
X231702663Y-99128743D01*
X231854321Y-99174532D01*
X231994195Y-99248904D01*
X232116961Y-99349030D01*
X232217940Y-99471093D01*
X232293290Y-99610449D01*
X232340135Y-99761780D01*
X232360000Y-99950782D01*
X232360000Y-104106495D01*
X232360000Y-104106495D01*
G37*
X232360000Y-104106495D02*
X231898177Y-108816525D01*
X230540031Y-113314924D01*
X228334008Y-117463850D01*
X225364132Y-121105276D01*
X221743527Y-124100501D01*
X217610103Y-126335435D01*
X215653951Y-126940965D01*
X215653951Y-116342462D01*
X215627444Y-116051190D01*
X215544866Y-115770615D01*
X215409363Y-115511422D01*
X215226097Y-115283485D01*
X215002048Y-115095485D01*
X214942413Y-115062700D01*
X214984701Y-115040216D01*
X215211353Y-114855363D01*
X215397784Y-114630006D01*
X215536892Y-114372731D01*
X215623379Y-114093335D01*
X215653951Y-113802462D01*
X215627444Y-113511190D01*
X215544866Y-113230615D01*
X215409363Y-112971422D01*
X215226097Y-112743485D01*
X215002048Y-112555485D01*
X214942413Y-112522700D01*
X214984701Y-112500216D01*
X215211353Y-112315363D01*
X215397784Y-112090006D01*
X215536892Y-111832731D01*
X215623379Y-111553335D01*
X215653951Y-111262462D01*
X215627444Y-110971190D01*
X215544866Y-110690615D01*
X215409363Y-110431422D01*
X215226097Y-110203485D01*
X215002048Y-110015485D01*
X214942413Y-109982700D01*
X214984701Y-109960216D01*
X215211353Y-109775363D01*
X215397784Y-109550006D01*
X215536892Y-109292731D01*
X215623379Y-109013335D01*
X215653951Y-108722462D01*
X215627444Y-108431190D01*
X215544866Y-108150615D01*
X215409363Y-107891422D01*
X215226097Y-107663485D01*
X215002048Y-107475485D01*
X214942413Y-107442700D01*
X214984701Y-107420216D01*
X215211353Y-107235363D01*
X215397784Y-107010006D01*
X215536892Y-106752731D01*
X215623379Y-106473335D01*
X215653951Y-106182462D01*
X215627444Y-105891190D01*
X215544866Y-105610615D01*
X215409363Y-105351422D01*
X215226097Y-105123485D01*
X215002048Y-104935485D01*
X214942413Y-104902700D01*
X214984701Y-104880216D01*
X215211353Y-104695363D01*
X215397784Y-104470006D01*
X215536892Y-104212731D01*
X215623379Y-103933335D01*
X215653951Y-103642462D01*
X215627444Y-103351190D01*
X215544866Y-103070615D01*
X215409363Y-102811422D01*
X215226097Y-102583485D01*
X215002048Y-102395485D01*
X214745749Y-102254584D01*
X214466964Y-102166148D01*
X214176312Y-102133546D01*
X214155388Y-102133400D01*
X213834612Y-102133400D01*
X213543532Y-102161941D01*
X213263540Y-102246475D01*
X213005299Y-102383784D01*
X212778647Y-102568637D01*
X212592216Y-102793994D01*
X212453108Y-103051269D01*
X212366621Y-103330665D01*
X212336049Y-103621538D01*
X212362556Y-103912810D01*
X212445134Y-104193385D01*
X212580637Y-104452578D01*
X212763903Y-104680515D01*
X212987952Y-104868515D01*
X213047586Y-104901299D01*
X213005299Y-104923784D01*
X212778647Y-105108637D01*
X212592216Y-105333994D01*
X212453108Y-105591269D01*
X212366621Y-105870665D01*
X212336049Y-106161538D01*
X212362556Y-106452810D01*
X212445134Y-106733385D01*
X212580637Y-106992578D01*
X212763903Y-107220515D01*
X212987952Y-107408515D01*
X213047586Y-107441299D01*
X213005299Y-107463784D01*
X212778647Y-107648637D01*
X212592216Y-107873994D01*
X212453108Y-108131269D01*
X212366621Y-108410665D01*
X212336049Y-108701538D01*
X212362556Y-108992810D01*
X212445134Y-109273385D01*
X212580637Y-109532578D01*
X212763903Y-109760515D01*
X212987952Y-109948515D01*
X213047586Y-109981299D01*
X213005299Y-110003784D01*
X212778647Y-110188637D01*
X212592216Y-110413994D01*
X212453108Y-110671269D01*
X212366621Y-110950665D01*
X212336049Y-111241538D01*
X212362556Y-111532810D01*
X212445134Y-111813385D01*
X212580637Y-112072578D01*
X212763903Y-112300515D01*
X212987952Y-112488515D01*
X213047586Y-112521299D01*
X213005299Y-112543784D01*
X212778647Y-112728637D01*
X212592216Y-112953994D01*
X212453108Y-113211269D01*
X212366621Y-113490665D01*
X212336049Y-113781538D01*
X212362556Y-114072810D01*
X212445134Y-114353385D01*
X212580637Y-114612578D01*
X212763903Y-114840515D01*
X212987952Y-115028515D01*
X213047586Y-115061299D01*
X213005299Y-115083784D01*
X212778647Y-115268637D01*
X212592216Y-115493994D01*
X212453108Y-115751269D01*
X212366621Y-116030665D01*
X212336049Y-116321538D01*
X212362556Y-116612810D01*
X212445134Y-116893385D01*
X212580637Y-117152578D01*
X212763903Y-117380515D01*
X212987952Y-117568515D01*
X213244251Y-117709416D01*
X213523036Y-117797852D01*
X213813688Y-117830454D01*
X213834612Y-117830600D01*
X214155388Y-117830600D01*
X214446468Y-117802059D01*
X214726460Y-117717525D01*
X214984701Y-117580216D01*
X215211353Y-117395363D01*
X215397784Y-117170006D01*
X215536892Y-116912731D01*
X215623379Y-116633335D01*
X215653951Y-116342462D01*
X215653951Y-126940965D01*
X213121292Y-127724955D01*
X210545729Y-127995656D01*
X210545729Y-108410170D01*
X210502481Y-108191751D01*
X210417632Y-107985892D01*
X210294414Y-107800434D01*
X210137520Y-107642441D01*
X209952927Y-107517932D01*
X209747666Y-107431648D01*
X209529554Y-107386876D01*
X209306900Y-107385321D01*
X209088184Y-107427044D01*
X208881738Y-107510453D01*
X208695424Y-107632374D01*
X208661709Y-107665389D01*
X208638920Y-107642441D01*
X208454327Y-107517932D01*
X208249066Y-107431648D01*
X208030954Y-107386876D01*
X207808300Y-107385321D01*
X207589584Y-107427044D01*
X207383138Y-107510453D01*
X207196824Y-107632374D01*
X207037740Y-107788160D01*
X206911944Y-107971880D01*
X206824230Y-108176534D01*
X206777936Y-108394328D01*
X206774827Y-108616966D01*
X206815022Y-108835967D01*
X206896988Y-109042991D01*
X207017605Y-109230151D01*
X207172277Y-109390319D01*
X207355114Y-109517394D01*
X207559151Y-109606536D01*
X207776616Y-109654349D01*
X207999227Y-109659012D01*
X208218504Y-109620347D01*
X208426094Y-109539828D01*
X208614092Y-109420521D01*
X208658867Y-109377882D01*
X208670877Y-109390319D01*
X208853714Y-109517394D01*
X209057751Y-109606536D01*
X209275216Y-109654349D01*
X209497827Y-109659012D01*
X209717104Y-109620347D01*
X209924694Y-109539828D01*
X210112692Y-109420521D01*
X210273936Y-109266971D01*
X210402284Y-109085025D01*
X210492848Y-108881616D01*
X210542178Y-108664489D01*
X210545729Y-108410170D01*
X210545729Y-127995656D01*
X209994546Y-128053587D01*
X209994546Y-115464150D01*
X209953426Y-115256481D01*
X209872754Y-115060753D01*
X209755600Y-114884423D01*
X209606428Y-114734207D01*
X209430921Y-114615825D01*
X209235761Y-114533788D01*
X209028384Y-114491219D01*
X208913043Y-114490413D01*
X208310815Y-113888185D01*
X208256400Y-113843487D01*
X208202505Y-113798264D01*
X208198997Y-113796335D01*
X208195897Y-113793789D01*
X208133831Y-113760510D01*
X208072184Y-113726619D01*
X208068363Y-113725407D01*
X208064833Y-113723514D01*
X207997535Y-113702939D01*
X207930429Y-113681652D01*
X207926445Y-113681205D01*
X207922615Y-113680034D01*
X207852627Y-113672924D01*
X207782639Y-113665074D01*
X207774802Y-113665019D01*
X207774660Y-113665005D01*
X207774526Y-113665017D01*
X207772000Y-113665000D01*
X207520708Y-113665000D01*
X207447428Y-113591207D01*
X207271921Y-113472825D01*
X207076761Y-113390788D01*
X206869384Y-113348219D01*
X206657689Y-113346741D01*
X206449738Y-113386410D01*
X206253452Y-113465715D01*
X206076308Y-113581634D01*
X205925054Y-113729753D01*
X205805450Y-113904431D01*
X205722052Y-114099012D01*
X205678037Y-114306087D01*
X205675081Y-114517767D01*
X205713297Y-114725990D01*
X205791230Y-114922825D01*
X205905910Y-115100773D01*
X206052969Y-115253058D01*
X206226807Y-115373879D01*
X206420802Y-115458633D01*
X206627564Y-115504093D01*
X206839219Y-115508526D01*
X207047704Y-115471765D01*
X207245077Y-115395208D01*
X207423822Y-115281773D01*
X207488013Y-115220643D01*
X207835376Y-115568006D01*
X207834081Y-115660767D01*
X207872297Y-115868990D01*
X207950230Y-116065825D01*
X208064910Y-116243773D01*
X208211969Y-116396058D01*
X208385807Y-116516879D01*
X208579802Y-116601633D01*
X208786564Y-116647093D01*
X208998219Y-116651526D01*
X209206704Y-116614765D01*
X209404077Y-116538208D01*
X209582822Y-116424773D01*
X209736130Y-116278780D01*
X209858161Y-116105790D01*
X209944268Y-115912392D01*
X209991170Y-115705952D01*
X209994546Y-115464150D01*
X209994546Y-128053587D01*
X208448084Y-128216127D01*
X204223951Y-127831701D01*
X204223951Y-116342462D01*
X204197444Y-116051190D01*
X204114866Y-115770615D01*
X203979363Y-115511422D01*
X203796097Y-115283485D01*
X203572048Y-115095485D01*
X203512413Y-115062700D01*
X203554701Y-115040216D01*
X203781353Y-114855363D01*
X203967784Y-114630006D01*
X204106892Y-114372731D01*
X204193379Y-114093335D01*
X204223951Y-113802462D01*
X204223951Y-108722462D01*
X204197444Y-108431190D01*
X204114866Y-108150615D01*
X203979363Y-107891422D01*
X203796097Y-107663485D01*
X203572048Y-107475485D01*
X203512413Y-107442700D01*
X203554701Y-107420216D01*
X203781353Y-107235363D01*
X203967784Y-107010006D01*
X204106892Y-106752731D01*
X204193379Y-106473335D01*
X204223951Y-106182462D01*
X204197444Y-105891190D01*
X204114866Y-105610615D01*
X203979363Y-105351422D01*
X203796097Y-105123485D01*
X203572048Y-104935485D01*
X203512413Y-104902700D01*
X203554701Y-104880216D01*
X203781353Y-104695363D01*
X203967784Y-104470006D01*
X204106892Y-104212731D01*
X204193379Y-103933335D01*
X204223951Y-103642462D01*
X204197444Y-103351190D01*
X204114866Y-103070615D01*
X203979363Y-102811422D01*
X203796097Y-102583485D01*
X203572048Y-102395485D01*
X203315749Y-102254584D01*
X203036964Y-102166148D01*
X202746312Y-102133546D01*
X202725388Y-102133400D01*
X202404612Y-102133400D01*
X202113532Y-102161941D01*
X201833540Y-102246475D01*
X201575299Y-102383784D01*
X201348647Y-102568637D01*
X201162216Y-102793994D01*
X201023108Y-103051269D01*
X200936621Y-103330665D01*
X200906049Y-103621538D01*
X200932556Y-103912810D01*
X201015134Y-104193385D01*
X201150637Y-104452578D01*
X201333903Y-104680515D01*
X201557952Y-104868515D01*
X201617586Y-104901299D01*
X201575299Y-104923784D01*
X201348647Y-105108637D01*
X201162216Y-105333994D01*
X201023108Y-105591269D01*
X200936621Y-105870665D01*
X200906049Y-106161538D01*
X200932556Y-106452810D01*
X201015134Y-106733385D01*
X201150637Y-106992578D01*
X201333903Y-107220515D01*
X201557952Y-107408515D01*
X201617586Y-107441299D01*
X201575299Y-107463784D01*
X201348647Y-107648637D01*
X201162216Y-107873994D01*
X201023108Y-108131269D01*
X200936621Y-108410665D01*
X200906049Y-108701538D01*
X200932556Y-108992810D01*
X201015134Y-109273385D01*
X201150637Y-109532578D01*
X201333903Y-109760515D01*
X201557952Y-109948515D01*
X201619872Y-109982555D01*
X201413271Y-110133514D01*
X201214267Y-110349965D01*
X201061314Y-110601081D01*
X200960291Y-110877211D01*
X200957642Y-110892974D01*
X201078783Y-111125000D01*
X202438000Y-111125000D01*
X202438000Y-111105000D01*
X202692000Y-111105000D01*
X202692000Y-111125000D01*
X204051217Y-111125000D01*
X204172358Y-110892974D01*
X204169709Y-110877211D01*
X204068686Y-110601081D01*
X203915733Y-110349965D01*
X203716729Y-110133514D01*
X203511205Y-109983343D01*
X203554701Y-109960216D01*
X203781353Y-109775363D01*
X203967784Y-109550006D01*
X204106892Y-109292731D01*
X204193379Y-109013335D01*
X204223951Y-108722462D01*
X204223951Y-113802462D01*
X204197444Y-113511190D01*
X204114866Y-113230615D01*
X203979363Y-112971422D01*
X203796097Y-112743485D01*
X203572048Y-112555485D01*
X203510127Y-112521444D01*
X203716729Y-112370486D01*
X203915733Y-112154035D01*
X204068686Y-111902919D01*
X204169709Y-111626789D01*
X204172358Y-111611026D01*
X204051217Y-111379000D01*
X202692000Y-111379000D01*
X202692000Y-111399000D01*
X202438000Y-111399000D01*
X202438000Y-111379000D01*
X201078783Y-111379000D01*
X200957642Y-111611026D01*
X200960291Y-111626789D01*
X201061314Y-111902919D01*
X201214267Y-112154035D01*
X201413271Y-112370486D01*
X201618794Y-112520656D01*
X201575299Y-112543784D01*
X201348647Y-112728637D01*
X201162216Y-112953994D01*
X201023108Y-113211269D01*
X200936621Y-113490665D01*
X200906049Y-113781538D01*
X200932556Y-114072810D01*
X201015134Y-114353385D01*
X201150637Y-114612578D01*
X201333903Y-114840515D01*
X201557952Y-115028515D01*
X201617586Y-115061299D01*
X201575299Y-115083784D01*
X201348647Y-115268637D01*
X201162216Y-115493994D01*
X201023108Y-115751269D01*
X200936621Y-116030665D01*
X200906049Y-116321538D01*
X200932556Y-116612810D01*
X201015134Y-116893385D01*
X201150637Y-117152578D01*
X201333903Y-117380515D01*
X201557952Y-117568515D01*
X201814251Y-117709416D01*
X202093036Y-117797852D01*
X202383688Y-117830454D01*
X202404612Y-117830600D01*
X202725388Y-117830600D01*
X203016468Y-117802059D01*
X203296460Y-117717525D01*
X203554701Y-117580216D01*
X203781353Y-117395363D01*
X203967784Y-117170006D01*
X204106892Y-116912731D01*
X204193379Y-116633335D01*
X204223951Y-116342462D01*
X204223951Y-127831701D01*
X203768472Y-127790250D01*
X200028072Y-126689390D01*
X200028072Y-101155500D01*
X200028072Y-99758500D01*
X200019697Y-99655457D01*
X199966227Y-99484459D01*
X199867326Y-99335066D01*
X199730792Y-99219058D01*
X199567389Y-99145581D01*
X199390000Y-99120428D01*
X197993000Y-99120428D01*
X197889957Y-99128803D01*
X197718959Y-99182273D01*
X197569566Y-99281174D01*
X197453558Y-99417708D01*
X197380081Y-99581111D01*
X197354928Y-99758500D01*
X197354928Y-101155500D01*
X197363303Y-101258543D01*
X197416773Y-101429541D01*
X197515674Y-101578934D01*
X197652208Y-101694942D01*
X197815611Y-101768419D01*
X197993000Y-101793572D01*
X199390000Y-101793572D01*
X199493043Y-101785197D01*
X199664041Y-101731727D01*
X199813434Y-101632826D01*
X199929442Y-101496292D01*
X200002919Y-101332889D01*
X200028072Y-101155500D01*
X200028072Y-126689390D01*
X199260702Y-126463541D01*
X195096477Y-124286536D01*
X192405057Y-122122578D01*
X192405057Y-100326244D01*
X192354262Y-100069711D01*
X192254607Y-99827931D01*
X192109888Y-99610111D01*
X191925618Y-99424549D01*
X191708814Y-99278313D01*
X191467735Y-99176973D01*
X191211563Y-99124388D01*
X190950057Y-99122563D01*
X190693176Y-99171565D01*
X190450706Y-99269530D01*
X190231881Y-99412725D01*
X190045037Y-99595695D01*
X189897291Y-99811473D01*
X189794270Y-100051839D01*
X189739899Y-100307637D01*
X189736247Y-100569124D01*
X189783455Y-100826341D01*
X189879725Y-101069489D01*
X190021388Y-101289308D01*
X190203050Y-101477425D01*
X190417791Y-101626674D01*
X190657432Y-101731370D01*
X190912844Y-101787526D01*
X191174300Y-101793003D01*
X191431840Y-101747592D01*
X191675654Y-101653022D01*
X191896457Y-101512897D01*
X192085837Y-101332552D01*
X192236581Y-101118858D01*
X192342948Y-100879955D01*
X192400886Y-100624941D01*
X192405057Y-100326244D01*
X192405057Y-122122578D01*
X191434403Y-121342153D01*
X188413976Y-117742549D01*
X186150239Y-113624826D01*
X184729419Y-109145829D01*
X184202146Y-104445089D01*
X184200000Y-104137653D01*
X184200000Y-99958503D01*
X184218743Y-99767336D01*
X184264532Y-99615678D01*
X184338904Y-99475804D01*
X184439030Y-99353038D01*
X184561093Y-99252059D01*
X184700449Y-99176709D01*
X184851780Y-99129864D01*
X185040782Y-99110000D01*
X218785762Y-99110000D01*
X218785762Y-103581000D01*
X230351000Y-103581000D01*
X230351000Y-99110000D01*
X231511496Y-99110000D01*
X231702663Y-99128743D01*
X231854321Y-99174532D01*
X231994195Y-99248904D01*
X232116961Y-99349030D01*
X232217940Y-99471093D01*
X232293290Y-99610449D01*
X232340135Y-99761780D01*
X232360000Y-99950782D01*
X232360000Y-104106495D01*
M02*
