M48
;DRILL file {kicad (2014-10-27 BZR 5228)-product} date 20/04/2015 15:04:18
;FORMAT={-:-/ absolute / metric / decimal}
FMAT,2
METRIC,TZ
T1C0.599
T2C0.635
T3C0.813
T4C1.016
%
G90
G05
M71
T1
X207.912Y-108.521
X209.41Y-108.521
T2
X205.105Y-111.506
X206.756Y-114.427
X208.915Y-115.57
X210.312Y-99.568
X216.662Y-119.253
T3
X191.071Y-100.457
X198.691Y-100.457
T4
X202.565Y-103.632
X202.565Y-106.172
X202.565Y-108.712
X202.565Y-111.252
X202.565Y-113.792
X202.565Y-116.332
X213.995Y-103.632
X213.995Y-106.172
X213.995Y-108.712
X213.995Y-111.252
X213.995Y-113.792
X213.995Y-116.332
T0
M30
