G04 #@! TF.FileFunction,Copper,L1,Top,Signal*
%FSLAX46Y46*%
G04 Gerber Fmt 4.6, Leading zero omitted, Abs format (unit mm)*
G04 Created by KiCad (PCBNEW (2015-04-22 BZR 5620)-product) date 06/08/2015 11:32:43*
%MOMM*%
G01*
G04 APERTURE LIST*
%ADD10C,0.100000*%
%ADD11O,2.032000X1.727200*%
%ADD12R,1.000000X1.250000*%
%ADD13R,0.750000X1.200000*%
%ADD14R,1.397000X1.397000*%
%ADD15C,1.397000*%
%ADD16R,1.300000X0.700000*%
%ADD17R,0.700000X1.300000*%
%ADD18R,0.600000X1.550000*%
%ADD19C,1.000760*%
%ADD20C,0.889000*%
%ADD21C,0.254000*%
G04 APERTURE END LIST*
D10*
D11*
X202565000Y-103632000D03*
X202565000Y-106172000D03*
X202565000Y-108712000D03*
X202565000Y-111252000D03*
X202565000Y-113792000D03*
X202565000Y-116332000D03*
X213995000Y-103632000D03*
X213995000Y-106172000D03*
X213995000Y-108712000D03*
X213995000Y-111252000D03*
X213995000Y-113792000D03*
X213995000Y-116332000D03*
D12*
X212995000Y-119824500D03*
X214995000Y-119824500D03*
D13*
X211074000Y-109281000D03*
X211074000Y-107381000D03*
X206248000Y-109217500D03*
X206248000Y-107317500D03*
D12*
X207565500Y-100330000D03*
X205565500Y-100330000D03*
D14*
X198691500Y-100457000D03*
D15*
X191071500Y-100457000D03*
D16*
X209486500Y-123187500D03*
X209486500Y-121287500D03*
X206946500Y-123187500D03*
X206946500Y-121287500D03*
X204406500Y-123187500D03*
X204406500Y-121287500D03*
D17*
X203515000Y-100393500D03*
X201615000Y-100393500D03*
D18*
X210058000Y-117381000D03*
X208788000Y-117381000D03*
X207518000Y-117381000D03*
X206248000Y-117381000D03*
X206248000Y-111981000D03*
X207518000Y-111981000D03*
X208788000Y-111981000D03*
X210058000Y-111981000D03*
D10*
G36*
X200963564Y-121182515D02*
X196633436Y-123682515D01*
X194133436Y-119352387D01*
X198463564Y-116852387D01*
X200963564Y-121182515D01*
X200963564Y-121182515D01*
G37*
G36*
X191946564Y-105564613D02*
X187616436Y-108064613D01*
X185116436Y-103734485D01*
X189446564Y-101234485D01*
X191946564Y-105564613D01*
X191946564Y-105564613D01*
G37*
G36*
X196455064Y-113373564D02*
X192124936Y-115873564D01*
X189624936Y-111543436D01*
X193955064Y-109043436D01*
X196455064Y-113373564D01*
X196455064Y-113373564D01*
G37*
D19*
X207911700Y-108521500D03*
X209410300Y-108521500D03*
D20*
X205105000Y-111506000D03*
X216662000Y-119253000D03*
X210312000Y-99568000D03*
X208915000Y-115570000D03*
X206756000Y-114427000D03*
D21*
X211074000Y-101727000D02*
X211074000Y-107381000D01*
X206248000Y-101727000D02*
X211074000Y-101727000D01*
X206248000Y-107317500D02*
X206248000Y-101727000D01*
X205580000Y-111981000D02*
X205105000Y-111506000D01*
X206248000Y-111981000D02*
X205580000Y-111981000D01*
X216090500Y-119824500D02*
X216662000Y-119253000D01*
X214995000Y-119824500D02*
X216090500Y-119824500D01*
X209677000Y-100330000D02*
X211074000Y-101727000D01*
X207565500Y-100330000D02*
X209677000Y-100330000D01*
X209677000Y-100203000D02*
X210312000Y-99568000D01*
X209677000Y-100330000D02*
X209677000Y-100203000D01*
X194246500Y-111252000D02*
X202565000Y-111252000D01*
X193040000Y-112458500D02*
X194246500Y-111252000D01*
X211518500Y-119824500D02*
X212995000Y-119824500D01*
X210058000Y-118364000D02*
X211518500Y-119824500D01*
X210058000Y-117381000D02*
X210058000Y-118364000D01*
X204406500Y-123187500D02*
X206946500Y-123187500D01*
X206946500Y-123187500D02*
X209486500Y-123187500D01*
X211584500Y-123187500D02*
X212995000Y-121777000D01*
X212995000Y-121777000D02*
X212995000Y-119824500D01*
X209486500Y-123187500D02*
X211584500Y-123187500D01*
X210169800Y-109281000D02*
X209410300Y-108521500D01*
X211074000Y-109281000D02*
X210169800Y-109281000D01*
X209410300Y-109461300D02*
X210058000Y-110109000D01*
X210058000Y-110109000D02*
X210058000Y-111981000D01*
X209410300Y-108521500D02*
X209410300Y-109461300D01*
X207215700Y-109217500D02*
X207911700Y-108521500D01*
X206248000Y-109217500D02*
X207215700Y-109217500D01*
X207911700Y-109423200D02*
X208788000Y-110299500D01*
X208788000Y-110299500D02*
X208788000Y-111981000D01*
X207911700Y-108521500D02*
X207911700Y-109423200D01*
X205502000Y-100393500D02*
X205565500Y-100330000D01*
X203515000Y-100393500D02*
X205502000Y-100393500D01*
X204851000Y-101044500D02*
X204851000Y-110109000D01*
X204851000Y-110109000D02*
X205359000Y-110617000D01*
X205359000Y-110617000D02*
X207264000Y-110617000D01*
X207264000Y-110617000D02*
X207518000Y-110871000D01*
X207518000Y-110871000D02*
X207518000Y-111981000D01*
X205565500Y-100330000D02*
X204851000Y-101044500D01*
X201551500Y-100457000D02*
X201615000Y-100393500D01*
X201551500Y-100457000D02*
X201615000Y-100393500D01*
X198691500Y-100457000D02*
X201551500Y-100457000D01*
X188531500Y-102997000D02*
X191071500Y-100457000D01*
X188531500Y-104649549D02*
X188531500Y-102997000D01*
X187706000Y-114427000D02*
X193546451Y-120267451D01*
X193546451Y-120267451D02*
X197548500Y-120267451D01*
X187706000Y-105475049D02*
X187706000Y-114427000D01*
X188531500Y-104649549D02*
X187706000Y-105475049D01*
X208788000Y-119634000D02*
X209486500Y-120332500D01*
X209486500Y-120332500D02*
X209486500Y-121287500D01*
X208788000Y-117381000D02*
X208788000Y-119634000D01*
X208788000Y-115697000D02*
X208915000Y-115570000D01*
X206756000Y-114427000D02*
X205994000Y-114427000D01*
X205994000Y-114427000D02*
X204216000Y-112649000D01*
X204216000Y-112649000D02*
X204216000Y-110363000D01*
X204216000Y-110363000D02*
X202565000Y-108712000D01*
X208788000Y-117381000D02*
X208788000Y-115697000D01*
X204406500Y-120332500D02*
X204406500Y-121287500D01*
X206248000Y-118491000D02*
X204406500Y-120332500D01*
X206248000Y-117381000D02*
X206248000Y-118491000D01*
X206248000Y-115697000D02*
X204343000Y-113792000D01*
X204343000Y-113792000D02*
X202565000Y-113792000D01*
X206248000Y-117381000D02*
X206248000Y-115697000D01*
X207518000Y-119634000D02*
X206946500Y-120205500D01*
X206946500Y-120205500D02*
X206946500Y-121287500D01*
X207518000Y-117381000D02*
X207518000Y-119634000D01*
X207518000Y-115570000D02*
X209296000Y-113792000D01*
X209296000Y-113792000D02*
X213995000Y-113792000D01*
X207518000Y-117381000D02*
X207518000Y-115570000D01*
G36*
X232360000Y-104106495D02*
X231898177Y-108816525D01*
X230540031Y-113314924D01*
X228334008Y-117463850D01*
X225364132Y-121105276D01*
X221743527Y-124100501D01*
X217741546Y-126264364D01*
X217741546Y-119147150D01*
X217700426Y-118939481D01*
X217619754Y-118743753D01*
X217502600Y-118567423D01*
X217353428Y-118417207D01*
X217177921Y-118298825D01*
X216982761Y-118216788D01*
X216775384Y-118174219D01*
X216563689Y-118172741D01*
X216355738Y-118212410D01*
X216159452Y-118291715D01*
X215982308Y-118407634D01*
X215831054Y-118555753D01*
X215780044Y-118630250D01*
X215680223Y-118588903D01*
X215557542Y-118564500D01*
X215432458Y-118564500D01*
X214432458Y-118564500D01*
X214309777Y-118588903D01*
X214194215Y-118636770D01*
X214090211Y-118706263D01*
X214001763Y-118794711D01*
X213995000Y-118804832D01*
X213988237Y-118794711D01*
X213899789Y-118706263D01*
X213795785Y-118636770D01*
X213680223Y-118588903D01*
X213557542Y-118564500D01*
X213280750Y-118564500D01*
X213122000Y-118723250D01*
X213122000Y-119697500D01*
X213142000Y-119697500D01*
X213142000Y-119951500D01*
X213122000Y-119951500D01*
X213122000Y-120925750D01*
X213280750Y-121084500D01*
X213557542Y-121084500D01*
X213680223Y-121060097D01*
X213795785Y-121012230D01*
X213899789Y-120942737D01*
X213988237Y-120854289D01*
X213995000Y-120844167D01*
X214001763Y-120854289D01*
X214090211Y-120942737D01*
X214194215Y-121012230D01*
X214309777Y-121060097D01*
X214432458Y-121084500D01*
X214557542Y-121084500D01*
X215557542Y-121084500D01*
X215680223Y-121060097D01*
X215795785Y-121012230D01*
X215899789Y-120942737D01*
X215988237Y-120854289D01*
X216057730Y-120750285D01*
X216105597Y-120634723D01*
X216115680Y-120584031D01*
X216160613Y-120579625D01*
X216230670Y-120573496D01*
X216234512Y-120572379D01*
X216238507Y-120571988D01*
X216305959Y-120551622D01*
X216373482Y-120532006D01*
X216377037Y-120530162D01*
X216380876Y-120529004D01*
X216443053Y-120495943D01*
X216505514Y-120463567D01*
X216508644Y-120461068D01*
X216512184Y-120459186D01*
X216566730Y-120414699D01*
X216621740Y-120370786D01*
X216627314Y-120365287D01*
X216627431Y-120365193D01*
X216627520Y-120365085D01*
X216629315Y-120363315D01*
X216659891Y-120332738D01*
X216745219Y-120334526D01*
X216953704Y-120297765D01*
X217151077Y-120221208D01*
X217329822Y-120107773D01*
X217483130Y-119961780D01*
X217605161Y-119788790D01*
X217691268Y-119595392D01*
X217738170Y-119388952D01*
X217741546Y-119147150D01*
X217741546Y-126264364D01*
X217610103Y-126335435D01*
X213121292Y-127724955D01*
X212868000Y-127751576D01*
X212868000Y-120925750D01*
X212868000Y-119951500D01*
X212868000Y-119697500D01*
X212868000Y-118723250D01*
X212709250Y-118564500D01*
X212432458Y-118564500D01*
X212309777Y-118588903D01*
X212194215Y-118636770D01*
X212090211Y-118706263D01*
X212001763Y-118794711D01*
X211932270Y-118898715D01*
X211884403Y-119014277D01*
X211860000Y-119136958D01*
X211860000Y-119262042D01*
X211860000Y-119538750D01*
X212018750Y-119697500D01*
X212868000Y-119697500D01*
X212868000Y-119951500D01*
X212018750Y-119951500D01*
X211860000Y-120110250D01*
X211860000Y-120386958D01*
X211860000Y-120512042D01*
X211884403Y-120634723D01*
X211932270Y-120750285D01*
X212001763Y-120854289D01*
X212090211Y-120942737D01*
X212194215Y-121012230D01*
X212309777Y-121060097D01*
X212432458Y-121084500D01*
X212709250Y-121084500D01*
X212868000Y-120925750D01*
X212868000Y-127751576D01*
X210993000Y-127948646D01*
X210993000Y-118218542D01*
X210993000Y-118093458D01*
X210993000Y-117666750D01*
X210993000Y-117095250D01*
X210993000Y-116668542D01*
X210993000Y-116543458D01*
X210968597Y-116420777D01*
X210920730Y-116305215D01*
X210851237Y-116201211D01*
X210762789Y-116112763D01*
X210658785Y-116043270D01*
X210543223Y-115995403D01*
X210420542Y-115971000D01*
X210343750Y-115971000D01*
X210185000Y-116129750D01*
X210185000Y-117254000D01*
X210834250Y-117254000D01*
X210993000Y-117095250D01*
X210993000Y-117666750D01*
X210834250Y-117508000D01*
X210185000Y-117508000D01*
X210185000Y-118632250D01*
X210343750Y-118791000D01*
X210420542Y-118791000D01*
X210543223Y-118766597D01*
X210658785Y-118718730D01*
X210762789Y-118649237D01*
X210851237Y-118560789D01*
X210920730Y-118456785D01*
X210968597Y-118341223D01*
X210993000Y-118218542D01*
X210993000Y-127948646D01*
X210771500Y-127971927D01*
X210771500Y-123600042D01*
X210771500Y-123473250D01*
X210612750Y-123314500D01*
X209613500Y-123314500D01*
X209613500Y-124013750D01*
X209772250Y-124172500D01*
X210073958Y-124172500D01*
X210199042Y-124172500D01*
X210321723Y-124148097D01*
X210437285Y-124100230D01*
X210541289Y-124030737D01*
X210629737Y-123942289D01*
X210699230Y-123838285D01*
X210747097Y-123722723D01*
X210771500Y-123600042D01*
X210771500Y-127971927D01*
X209359500Y-128120333D01*
X209359500Y-124013750D01*
X209359500Y-123314500D01*
X208360250Y-123314500D01*
X208216500Y-123458250D01*
X208072750Y-123314500D01*
X207073500Y-123314500D01*
X207073500Y-124013750D01*
X207232250Y-124172500D01*
X207533958Y-124172500D01*
X207659042Y-124172500D01*
X207781723Y-124148097D01*
X207897285Y-124100230D01*
X208001289Y-124030737D01*
X208089737Y-123942289D01*
X208159230Y-123838285D01*
X208207097Y-123722723D01*
X208216500Y-123675451D01*
X208225903Y-123722723D01*
X208273770Y-123838285D01*
X208343263Y-123942289D01*
X208431711Y-124030737D01*
X208535715Y-124100230D01*
X208651277Y-124148097D01*
X208773958Y-124172500D01*
X208899042Y-124172500D01*
X209200750Y-124172500D01*
X209359500Y-124013750D01*
X209359500Y-128120333D01*
X208448084Y-128216127D01*
X206819500Y-128067914D01*
X206819500Y-124013750D01*
X206819500Y-123314500D01*
X205820250Y-123314500D01*
X205676500Y-123458250D01*
X205532750Y-123314500D01*
X204533500Y-123314500D01*
X204533500Y-124013750D01*
X204692250Y-124172500D01*
X204993958Y-124172500D01*
X205119042Y-124172500D01*
X205241723Y-124148097D01*
X205357285Y-124100230D01*
X205461289Y-124030737D01*
X205549737Y-123942289D01*
X205619230Y-123838285D01*
X205667097Y-123722723D01*
X205676500Y-123675451D01*
X205685903Y-123722723D01*
X205733770Y-123838285D01*
X205803263Y-123942289D01*
X205891711Y-124030737D01*
X205995715Y-124100230D01*
X206111277Y-124148097D01*
X206233958Y-124172500D01*
X206359042Y-124172500D01*
X206660750Y-124172500D01*
X206819500Y-124013750D01*
X206819500Y-128067914D01*
X204279500Y-127836757D01*
X204279500Y-124013750D01*
X204279500Y-123314500D01*
X203280250Y-123314500D01*
X203121500Y-123473250D01*
X203121500Y-123600042D01*
X203145903Y-123722723D01*
X203193770Y-123838285D01*
X203263263Y-123942289D01*
X203351711Y-124030737D01*
X203455715Y-124100230D01*
X203571277Y-124148097D01*
X203693958Y-124172500D01*
X203819042Y-124172500D01*
X204120750Y-124172500D01*
X204279500Y-124013750D01*
X204279500Y-127836757D01*
X203768472Y-127790250D01*
X201601294Y-127152414D01*
X201601294Y-121161637D01*
X201584968Y-121037624D01*
X201544761Y-120919177D01*
X201482219Y-120810852D01*
X198982219Y-116480725D01*
X198899745Y-116386681D01*
X198800509Y-116310535D01*
X198688325Y-116255211D01*
X198567503Y-116222837D01*
X198442686Y-116214657D01*
X198318673Y-116230983D01*
X198200226Y-116271190D01*
X198091901Y-116333732D01*
X193761774Y-118833732D01*
X193667730Y-118916206D01*
X193591584Y-119015442D01*
X193536260Y-119127626D01*
X193525270Y-119168640D01*
X188468000Y-114111370D01*
X188468000Y-108306197D01*
X192318226Y-106083268D01*
X192412270Y-106000794D01*
X192488416Y-105901558D01*
X192543740Y-105789374D01*
X192576114Y-105668552D01*
X192584294Y-105543735D01*
X192567968Y-105419722D01*
X192527761Y-105301275D01*
X192465219Y-105192950D01*
X190616044Y-101990086D01*
X190835590Y-101770540D01*
X190912844Y-101787526D01*
X191174300Y-101793003D01*
X191431840Y-101747592D01*
X191675654Y-101653022D01*
X191896457Y-101512897D01*
X192085837Y-101332552D01*
X192236581Y-101118858D01*
X192342948Y-100879955D01*
X192400886Y-100624941D01*
X192405057Y-100326244D01*
X192354262Y-100069711D01*
X192254607Y-99827931D01*
X192109888Y-99610111D01*
X191925618Y-99424549D01*
X191708814Y-99278313D01*
X191467735Y-99176973D01*
X191211563Y-99124388D01*
X190950057Y-99122563D01*
X190693176Y-99171565D01*
X190450706Y-99269530D01*
X190231881Y-99412725D01*
X190045037Y-99595695D01*
X189897291Y-99811473D01*
X189794270Y-100051839D01*
X189739899Y-100307637D01*
X189736247Y-100569124D01*
X189756467Y-100679297D01*
X189671325Y-100637309D01*
X189550503Y-100604935D01*
X189425686Y-100596755D01*
X189301673Y-100613081D01*
X189183226Y-100653288D01*
X189074901Y-100715830D01*
X184744774Y-103215830D01*
X184650730Y-103298304D01*
X184574584Y-103397540D01*
X184519260Y-103509724D01*
X184486886Y-103630546D01*
X184478706Y-103755363D01*
X184495032Y-103879376D01*
X184535239Y-103997823D01*
X184597781Y-104106148D01*
X186944000Y-108169918D01*
X186944000Y-114427000D01*
X186950874Y-114497113D01*
X186957004Y-114567170D01*
X186958120Y-114571012D01*
X186958512Y-114575007D01*
X186978877Y-114642459D01*
X186998494Y-114709982D01*
X187000337Y-114713537D01*
X187001496Y-114717376D01*
X187034556Y-114779553D01*
X187066933Y-114842014D01*
X187069431Y-114845144D01*
X187071314Y-114848684D01*
X187115800Y-114903230D01*
X187159714Y-114958240D01*
X187165212Y-114963814D01*
X187165307Y-114963931D01*
X187165414Y-114964020D01*
X187167185Y-114965815D01*
X193007636Y-120806266D01*
X193062050Y-120850963D01*
X193115946Y-120896187D01*
X193119453Y-120898115D01*
X193122554Y-120900662D01*
X193184619Y-120933940D01*
X193246267Y-120967832D01*
X193250087Y-120969043D01*
X193253618Y-120970937D01*
X193320915Y-120991511D01*
X193388022Y-121012799D01*
X193392005Y-121013245D01*
X193395836Y-121014417D01*
X193465823Y-121021526D01*
X193535812Y-121029377D01*
X193543648Y-121029431D01*
X193543791Y-121029446D01*
X193543924Y-121029433D01*
X193546451Y-121029451D01*
X194368454Y-121029451D01*
X196114781Y-124054177D01*
X196197255Y-124148221D01*
X196296491Y-124224367D01*
X196408675Y-124279691D01*
X196529497Y-124312065D01*
X196654314Y-124320245D01*
X196778327Y-124303919D01*
X196896774Y-124263712D01*
X197005099Y-124201170D01*
X201335226Y-121701170D01*
X201429270Y-121618696D01*
X201505416Y-121519460D01*
X201560740Y-121407276D01*
X201593114Y-121286454D01*
X201601294Y-121161637D01*
X201601294Y-127152414D01*
X199260702Y-126463541D01*
X195096477Y-124286536D01*
X191434403Y-121342153D01*
X188413976Y-117742549D01*
X186150239Y-113624826D01*
X184729419Y-109145829D01*
X184202146Y-104445089D01*
X184200000Y-104137653D01*
X184200000Y-99958503D01*
X184218743Y-99767336D01*
X184264532Y-99615678D01*
X184338904Y-99475804D01*
X184439030Y-99353038D01*
X184561093Y-99252059D01*
X184700449Y-99176709D01*
X184851780Y-99129864D01*
X185040782Y-99110000D01*
X201194917Y-99110000D01*
X201079777Y-99132903D01*
X200964215Y-99180770D01*
X200860211Y-99250263D01*
X200771763Y-99338711D01*
X200702270Y-99442715D01*
X200654403Y-99558277D01*
X200630000Y-99680958D01*
X200630000Y-99695000D01*
X200024809Y-99695000D01*
X200000597Y-99573277D01*
X199952730Y-99457715D01*
X199883237Y-99353711D01*
X199794789Y-99265263D01*
X199690785Y-99195770D01*
X199575223Y-99147903D01*
X199452542Y-99123500D01*
X199327458Y-99123500D01*
X197930458Y-99123500D01*
X197807777Y-99147903D01*
X197692215Y-99195770D01*
X197588211Y-99265263D01*
X197499763Y-99353711D01*
X197430270Y-99457715D01*
X197382403Y-99573277D01*
X197358000Y-99695958D01*
X197358000Y-99821042D01*
X197358000Y-101218042D01*
X197382403Y-101340723D01*
X197430270Y-101456285D01*
X197499763Y-101560289D01*
X197588211Y-101648737D01*
X197692215Y-101718230D01*
X197807777Y-101766097D01*
X197930458Y-101790500D01*
X198055542Y-101790500D01*
X199452542Y-101790500D01*
X199575223Y-101766097D01*
X199690785Y-101718230D01*
X199794789Y-101648737D01*
X199883237Y-101560289D01*
X199952730Y-101456285D01*
X200000597Y-101340723D01*
X200024809Y-101219000D01*
X200652468Y-101219000D01*
X200654403Y-101228723D01*
X200702270Y-101344285D01*
X200771763Y-101448289D01*
X200860211Y-101536737D01*
X200964215Y-101606230D01*
X201079777Y-101654097D01*
X201202458Y-101678500D01*
X201327542Y-101678500D01*
X202027542Y-101678500D01*
X202150223Y-101654097D01*
X202265785Y-101606230D01*
X202369789Y-101536737D01*
X202458237Y-101448289D01*
X202527730Y-101344285D01*
X202565000Y-101254306D01*
X202602270Y-101344285D01*
X202671763Y-101448289D01*
X202760211Y-101536737D01*
X202864215Y-101606230D01*
X202979777Y-101654097D01*
X203102458Y-101678500D01*
X203227542Y-101678500D01*
X203927542Y-101678500D01*
X204050223Y-101654097D01*
X204089000Y-101638035D01*
X204089000Y-103021137D01*
X203979363Y-102811422D01*
X203796097Y-102583485D01*
X203572048Y-102395485D01*
X203315749Y-102254584D01*
X203036964Y-102166148D01*
X202746312Y-102133546D01*
X202725388Y-102133400D01*
X202404612Y-102133400D01*
X202113532Y-102161941D01*
X201833540Y-102246475D01*
X201575299Y-102383784D01*
X201348647Y-102568637D01*
X201162216Y-102793994D01*
X201023108Y-103051269D01*
X200936621Y-103330665D01*
X200906049Y-103621538D01*
X200932556Y-103912810D01*
X201015134Y-104193385D01*
X201150637Y-104452578D01*
X201333903Y-104680515D01*
X201557952Y-104868515D01*
X201617586Y-104901299D01*
X201575299Y-104923784D01*
X201348647Y-105108637D01*
X201162216Y-105333994D01*
X201023108Y-105591269D01*
X200936621Y-105870665D01*
X200906049Y-106161538D01*
X200932556Y-106452810D01*
X201015134Y-106733385D01*
X201150637Y-106992578D01*
X201333903Y-107220515D01*
X201557952Y-107408515D01*
X201617586Y-107441299D01*
X201575299Y-107463784D01*
X201348647Y-107648637D01*
X201162216Y-107873994D01*
X201023108Y-108131269D01*
X200936621Y-108410665D01*
X200906049Y-108701538D01*
X200932556Y-108992810D01*
X201015134Y-109273385D01*
X201150637Y-109532578D01*
X201333903Y-109760515D01*
X201557952Y-109948515D01*
X201617586Y-109981299D01*
X201575299Y-110003784D01*
X201348647Y-110188637D01*
X201162216Y-110413994D01*
X201121119Y-110490000D01*
X195523472Y-110490000D01*
X194473719Y-108671774D01*
X194391245Y-108577730D01*
X194292009Y-108501584D01*
X194179825Y-108446260D01*
X194059003Y-108413886D01*
X193934186Y-108405706D01*
X193810173Y-108422032D01*
X193691726Y-108462239D01*
X193583401Y-108524781D01*
X189253274Y-111024781D01*
X189159230Y-111107255D01*
X189083084Y-111206491D01*
X189027760Y-111318675D01*
X188995386Y-111439497D01*
X188987206Y-111564314D01*
X189003532Y-111688327D01*
X189043739Y-111806774D01*
X189106281Y-111915099D01*
X191606281Y-116245226D01*
X191688755Y-116339270D01*
X191787991Y-116415416D01*
X191900175Y-116470740D01*
X192020997Y-116503114D01*
X192145814Y-116511294D01*
X192269827Y-116494968D01*
X192388274Y-116454761D01*
X192496599Y-116392219D01*
X196826726Y-113892219D01*
X196920770Y-113809745D01*
X196996916Y-113710509D01*
X197052240Y-113598325D01*
X197084614Y-113477503D01*
X197092794Y-113352686D01*
X197076468Y-113228673D01*
X197036261Y-113110226D01*
X196973719Y-113001901D01*
X196403354Y-112014000D01*
X201120013Y-112014000D01*
X201150637Y-112072578D01*
X201333903Y-112300515D01*
X201557952Y-112488515D01*
X201617586Y-112521299D01*
X201575299Y-112543784D01*
X201348647Y-112728637D01*
X201162216Y-112953994D01*
X201023108Y-113211269D01*
X200936621Y-113490665D01*
X200906049Y-113781538D01*
X200932556Y-114072810D01*
X201015134Y-114353385D01*
X201150637Y-114612578D01*
X201333903Y-114840515D01*
X201557952Y-115028515D01*
X201617586Y-115061299D01*
X201575299Y-115083784D01*
X201348647Y-115268637D01*
X201162216Y-115493994D01*
X201023108Y-115751269D01*
X200936621Y-116030665D01*
X200906049Y-116321538D01*
X200932556Y-116612810D01*
X201015134Y-116893385D01*
X201150637Y-117152578D01*
X201333903Y-117380515D01*
X201557952Y-117568515D01*
X201814251Y-117709416D01*
X202093036Y-117797852D01*
X202383688Y-117830454D01*
X202404612Y-117830600D01*
X202725388Y-117830600D01*
X203016468Y-117802059D01*
X203296460Y-117717525D01*
X203554701Y-117580216D01*
X203781353Y-117395363D01*
X203967784Y-117170006D01*
X204106892Y-116912731D01*
X204193379Y-116633335D01*
X204223951Y-116342462D01*
X204197444Y-116051190D01*
X204114866Y-115770615D01*
X203979363Y-115511422D01*
X203796097Y-115283485D01*
X203572048Y-115095485D01*
X203512413Y-115062700D01*
X203554701Y-115040216D01*
X203781353Y-114855363D01*
X203967784Y-114630006D01*
X204008880Y-114554000D01*
X204027370Y-114554000D01*
X205486000Y-116012630D01*
X205486000Y-116169974D01*
X205454763Y-116201211D01*
X205385270Y-116305215D01*
X205337403Y-116420777D01*
X205313000Y-116543458D01*
X205313000Y-116668542D01*
X205313000Y-118218542D01*
X205334539Y-118326829D01*
X203867685Y-119793685D01*
X203822987Y-119848099D01*
X203777764Y-119901995D01*
X203775835Y-119905502D01*
X203773289Y-119908603D01*
X203740010Y-119970668D01*
X203706119Y-120032316D01*
X203704907Y-120036136D01*
X203703014Y-120039667D01*
X203682439Y-120106964D01*
X203661152Y-120174071D01*
X203660705Y-120178054D01*
X203659534Y-120181885D01*
X203652424Y-120251872D01*
X203645668Y-120312105D01*
X203571277Y-120326903D01*
X203455715Y-120374770D01*
X203351711Y-120444263D01*
X203263263Y-120532711D01*
X203193770Y-120636715D01*
X203145903Y-120752277D01*
X203121500Y-120874958D01*
X203121500Y-121000042D01*
X203121500Y-121700042D01*
X203145903Y-121822723D01*
X203193770Y-121938285D01*
X203263263Y-122042289D01*
X203351711Y-122130737D01*
X203455715Y-122200230D01*
X203545693Y-122237500D01*
X203455715Y-122274770D01*
X203351711Y-122344263D01*
X203263263Y-122432711D01*
X203193770Y-122536715D01*
X203145903Y-122652277D01*
X203121500Y-122774958D01*
X203121500Y-122901750D01*
X203280250Y-123060500D01*
X204279500Y-123060500D01*
X204279500Y-123040500D01*
X204533500Y-123040500D01*
X204533500Y-123060500D01*
X205532750Y-123060500D01*
X205676500Y-122916750D01*
X205820250Y-123060500D01*
X206819500Y-123060500D01*
X206819500Y-123040500D01*
X207073500Y-123040500D01*
X207073500Y-123060500D01*
X208072750Y-123060500D01*
X208216500Y-122916750D01*
X208360250Y-123060500D01*
X209359500Y-123060500D01*
X209359500Y-123040500D01*
X209613500Y-123040500D01*
X209613500Y-123060500D01*
X210612750Y-123060500D01*
X210771500Y-122901750D01*
X210771500Y-122774958D01*
X210747097Y-122652277D01*
X210699230Y-122536715D01*
X210629737Y-122432711D01*
X210541289Y-122344263D01*
X210437285Y-122274770D01*
X210347306Y-122237500D01*
X210437285Y-122200230D01*
X210541289Y-122130737D01*
X210629737Y-122042289D01*
X210699230Y-121938285D01*
X210747097Y-121822723D01*
X210771500Y-121700042D01*
X210771500Y-121574958D01*
X210771500Y-120874958D01*
X210747097Y-120752277D01*
X210699230Y-120636715D01*
X210629737Y-120532711D01*
X210541289Y-120444263D01*
X210437285Y-120374770D01*
X210321723Y-120326903D01*
X210246483Y-120311936D01*
X210241625Y-120262390D01*
X210235496Y-120192329D01*
X210234379Y-120188485D01*
X210233988Y-120184493D01*
X210213626Y-120117052D01*
X210194006Y-120049518D01*
X210192162Y-120045962D01*
X210191004Y-120042124D01*
X210157954Y-119979967D01*
X210125567Y-119917485D01*
X210123066Y-119914352D01*
X210121186Y-119910816D01*
X210076716Y-119856291D01*
X210032786Y-119801260D01*
X210027287Y-119795685D01*
X210027193Y-119795569D01*
X210027085Y-119795479D01*
X210025315Y-119793685D01*
X209550000Y-119318370D01*
X209550000Y-118757162D01*
X209572777Y-118766597D01*
X209695458Y-118791000D01*
X209772250Y-118791000D01*
X209931000Y-118632250D01*
X209931000Y-117508000D01*
X209911000Y-117508000D01*
X209911000Y-117254000D01*
X209931000Y-117254000D01*
X209931000Y-116129750D01*
X209873219Y-116071969D01*
X209944268Y-115912392D01*
X209991170Y-115705952D01*
X209994546Y-115464150D01*
X209953426Y-115256481D01*
X209872754Y-115060753D01*
X209755600Y-114884423D01*
X209606428Y-114734207D01*
X209501917Y-114663713D01*
X209611630Y-114554000D01*
X212550013Y-114554000D01*
X212580637Y-114612578D01*
X212763903Y-114840515D01*
X212987952Y-115028515D01*
X213047586Y-115061299D01*
X213005299Y-115083784D01*
X212778647Y-115268637D01*
X212592216Y-115493994D01*
X212453108Y-115751269D01*
X212366621Y-116030665D01*
X212336049Y-116321538D01*
X212362556Y-116612810D01*
X212445134Y-116893385D01*
X212580637Y-117152578D01*
X212763903Y-117380515D01*
X212987952Y-117568515D01*
X213244251Y-117709416D01*
X213523036Y-117797852D01*
X213813688Y-117830454D01*
X213834612Y-117830600D01*
X214155388Y-117830600D01*
X214446468Y-117802059D01*
X214726460Y-117717525D01*
X214984701Y-117580216D01*
X215211353Y-117395363D01*
X215397784Y-117170006D01*
X215536892Y-116912731D01*
X215623379Y-116633335D01*
X215653951Y-116342462D01*
X215627444Y-116051190D01*
X215544866Y-115770615D01*
X215409363Y-115511422D01*
X215226097Y-115283485D01*
X215002048Y-115095485D01*
X214942413Y-115062700D01*
X214984701Y-115040216D01*
X215211353Y-114855363D01*
X215397784Y-114630006D01*
X215536892Y-114372731D01*
X215623379Y-114093335D01*
X215653951Y-113802462D01*
X215653951Y-108722462D01*
X215627444Y-108431190D01*
X215544866Y-108150615D01*
X215409363Y-107891422D01*
X215226097Y-107663485D01*
X215002048Y-107475485D01*
X214942413Y-107442700D01*
X214984701Y-107420216D01*
X215211353Y-107235363D01*
X215397784Y-107010006D01*
X215536892Y-106752731D01*
X215623379Y-106473335D01*
X215653951Y-106182462D01*
X215627444Y-105891190D01*
X215544866Y-105610615D01*
X215409363Y-105351422D01*
X215226097Y-105123485D01*
X215002048Y-104935485D01*
X214942413Y-104902700D01*
X214984701Y-104880216D01*
X215211353Y-104695363D01*
X215397784Y-104470006D01*
X215536892Y-104212731D01*
X215623379Y-103933335D01*
X215653951Y-103642462D01*
X215627444Y-103351190D01*
X215544866Y-103070615D01*
X215409363Y-102811422D01*
X215226097Y-102583485D01*
X215002048Y-102395485D01*
X214745749Y-102254584D01*
X214466964Y-102166148D01*
X214176312Y-102133546D01*
X214155388Y-102133400D01*
X213834612Y-102133400D01*
X213543532Y-102161941D01*
X213263540Y-102246475D01*
X213005299Y-102383784D01*
X212778647Y-102568637D01*
X212592216Y-102793994D01*
X212453108Y-103051269D01*
X212366621Y-103330665D01*
X212336049Y-103621538D01*
X212362556Y-103912810D01*
X212445134Y-104193385D01*
X212580637Y-104452578D01*
X212763903Y-104680515D01*
X212987952Y-104868515D01*
X213047586Y-104901299D01*
X213005299Y-104923784D01*
X212778647Y-105108637D01*
X212592216Y-105333994D01*
X212453108Y-105591269D01*
X212366621Y-105870665D01*
X212336049Y-106161538D01*
X212362556Y-106452810D01*
X212445134Y-106733385D01*
X212580637Y-106992578D01*
X212763903Y-107220515D01*
X212987952Y-107408515D01*
X213047586Y-107441299D01*
X213005299Y-107463784D01*
X212778647Y-107648637D01*
X212592216Y-107873994D01*
X212453108Y-108131269D01*
X212366621Y-108410665D01*
X212336049Y-108701538D01*
X212362556Y-108992810D01*
X212445134Y-109273385D01*
X212580637Y-109532578D01*
X212763903Y-109760515D01*
X212987952Y-109948515D01*
X213049872Y-109982555D01*
X212843271Y-110133514D01*
X212644267Y-110349965D01*
X212491314Y-110601081D01*
X212390291Y-110877211D01*
X212387642Y-110892974D01*
X212508783Y-111125000D01*
X213868000Y-111125000D01*
X213868000Y-111105000D01*
X214122000Y-111105000D01*
X214122000Y-111125000D01*
X215481217Y-111125000D01*
X215602358Y-110892974D01*
X215599709Y-110877211D01*
X215498686Y-110601081D01*
X215345733Y-110349965D01*
X215146729Y-110133514D01*
X214941205Y-109983343D01*
X214984701Y-109960216D01*
X215211353Y-109775363D01*
X215397784Y-109550006D01*
X215536892Y-109292731D01*
X215623379Y-109013335D01*
X215653951Y-108722462D01*
X215653951Y-113802462D01*
X215627444Y-113511190D01*
X215544866Y-113230615D01*
X215409363Y-112971422D01*
X215226097Y-112743485D01*
X215002048Y-112555485D01*
X214940127Y-112521444D01*
X215146729Y-112370486D01*
X215345733Y-112154035D01*
X215498686Y-111902919D01*
X215599709Y-111626789D01*
X215602358Y-111611026D01*
X215481217Y-111379000D01*
X214122000Y-111379000D01*
X214122000Y-111399000D01*
X213868000Y-111399000D01*
X213868000Y-111379000D01*
X212508783Y-111379000D01*
X212387642Y-111611026D01*
X212390291Y-111626789D01*
X212491314Y-111902919D01*
X212644267Y-112154035D01*
X212843271Y-112370486D01*
X213048794Y-112520656D01*
X213005299Y-112543784D01*
X212778647Y-112728637D01*
X212592216Y-112953994D01*
X212551119Y-113030000D01*
X210931824Y-113030000D01*
X210968597Y-112941223D01*
X210993000Y-112818542D01*
X210993000Y-112693458D01*
X210993000Y-111143458D01*
X210968597Y-111020777D01*
X210920730Y-110905215D01*
X210851237Y-110801211D01*
X210820000Y-110769974D01*
X210820000Y-110516000D01*
X211511542Y-110516000D01*
X211634223Y-110491597D01*
X211749785Y-110443730D01*
X211853789Y-110374237D01*
X211942237Y-110285789D01*
X212011730Y-110181785D01*
X212059597Y-110066223D01*
X212084000Y-109943542D01*
X212084000Y-109818458D01*
X212084000Y-108618458D01*
X212059597Y-108495777D01*
X212011730Y-108380215D01*
X211978845Y-108331000D01*
X212011730Y-108281785D01*
X212059597Y-108166223D01*
X212084000Y-108043542D01*
X212084000Y-107918458D01*
X212084000Y-106718458D01*
X212059597Y-106595777D01*
X212011730Y-106480215D01*
X211942237Y-106376211D01*
X211853789Y-106287763D01*
X211836000Y-106275876D01*
X211836000Y-101727000D01*
X211829126Y-101656894D01*
X211822996Y-101586829D01*
X211822624Y-101585550D01*
X211822503Y-101584215D01*
X211821748Y-101581652D01*
X211821488Y-101578993D01*
X211801126Y-101511552D01*
X211781506Y-101444018D01*
X211780891Y-101442832D01*
X211780514Y-101441550D01*
X211779276Y-101439183D01*
X211778504Y-101436624D01*
X211745454Y-101374467D01*
X211713067Y-101311985D01*
X211712231Y-101310938D01*
X211711614Y-101309757D01*
X211709940Y-101307676D01*
X211708686Y-101305316D01*
X211664216Y-101250791D01*
X211620286Y-101195760D01*
X211618510Y-101193959D01*
X211618428Y-101193857D01*
X211618320Y-101193766D01*
X211614784Y-101190181D01*
X211614693Y-101190069D01*
X211614589Y-101189983D01*
X211612815Y-101188184D01*
X210898813Y-100474182D01*
X210979822Y-100422773D01*
X211133130Y-100276780D01*
X211255161Y-100103790D01*
X211341268Y-99910392D01*
X211388170Y-99703952D01*
X211391546Y-99462150D01*
X211350426Y-99254481D01*
X211290876Y-99110000D01*
X231511496Y-99110000D01*
X231702663Y-99128743D01*
X231854321Y-99174532D01*
X231994195Y-99248904D01*
X232116961Y-99349030D01*
X232217940Y-99471093D01*
X232293290Y-99610449D01*
X232340135Y-99761780D01*
X232360000Y-99950782D01*
X232360000Y-104106495D01*
X232360000Y-104106495D01*
G37*
X232360000Y-104106495D02*
X231898177Y-108816525D01*
X230540031Y-113314924D01*
X228334008Y-117463850D01*
X225364132Y-121105276D01*
X221743527Y-124100501D01*
X217741546Y-126264364D01*
X217741546Y-119147150D01*
X217700426Y-118939481D01*
X217619754Y-118743753D01*
X217502600Y-118567423D01*
X217353428Y-118417207D01*
X217177921Y-118298825D01*
X216982761Y-118216788D01*
X216775384Y-118174219D01*
X216563689Y-118172741D01*
X216355738Y-118212410D01*
X216159452Y-118291715D01*
X215982308Y-118407634D01*
X215831054Y-118555753D01*
X215780044Y-118630250D01*
X215680223Y-118588903D01*
X215557542Y-118564500D01*
X215432458Y-118564500D01*
X214432458Y-118564500D01*
X214309777Y-118588903D01*
X214194215Y-118636770D01*
X214090211Y-118706263D01*
X214001763Y-118794711D01*
X213995000Y-118804832D01*
X213988237Y-118794711D01*
X213899789Y-118706263D01*
X213795785Y-118636770D01*
X213680223Y-118588903D01*
X213557542Y-118564500D01*
X213280750Y-118564500D01*
X213122000Y-118723250D01*
X213122000Y-119697500D01*
X213142000Y-119697500D01*
X213142000Y-119951500D01*
X213122000Y-119951500D01*
X213122000Y-120925750D01*
X213280750Y-121084500D01*
X213557542Y-121084500D01*
X213680223Y-121060097D01*
X213795785Y-121012230D01*
X213899789Y-120942737D01*
X213988237Y-120854289D01*
X213995000Y-120844167D01*
X214001763Y-120854289D01*
X214090211Y-120942737D01*
X214194215Y-121012230D01*
X214309777Y-121060097D01*
X214432458Y-121084500D01*
X214557542Y-121084500D01*
X215557542Y-121084500D01*
X215680223Y-121060097D01*
X215795785Y-121012230D01*
X215899789Y-120942737D01*
X215988237Y-120854289D01*
X216057730Y-120750285D01*
X216105597Y-120634723D01*
X216115680Y-120584031D01*
X216160613Y-120579625D01*
X216230670Y-120573496D01*
X216234512Y-120572379D01*
X216238507Y-120571988D01*
X216305959Y-120551622D01*
X216373482Y-120532006D01*
X216377037Y-120530162D01*
X216380876Y-120529004D01*
X216443053Y-120495943D01*
X216505514Y-120463567D01*
X216508644Y-120461068D01*
X216512184Y-120459186D01*
X216566730Y-120414699D01*
X216621740Y-120370786D01*
X216627314Y-120365287D01*
X216627431Y-120365193D01*
X216627520Y-120365085D01*
X216629315Y-120363315D01*
X216659891Y-120332738D01*
X216745219Y-120334526D01*
X216953704Y-120297765D01*
X217151077Y-120221208D01*
X217329822Y-120107773D01*
X217483130Y-119961780D01*
X217605161Y-119788790D01*
X217691268Y-119595392D01*
X217738170Y-119388952D01*
X217741546Y-119147150D01*
X217741546Y-126264364D01*
X217610103Y-126335435D01*
X213121292Y-127724955D01*
X212868000Y-127751576D01*
X212868000Y-120925750D01*
X212868000Y-119951500D01*
X212868000Y-119697500D01*
X212868000Y-118723250D01*
X212709250Y-118564500D01*
X212432458Y-118564500D01*
X212309777Y-118588903D01*
X212194215Y-118636770D01*
X212090211Y-118706263D01*
X212001763Y-118794711D01*
X211932270Y-118898715D01*
X211884403Y-119014277D01*
X211860000Y-119136958D01*
X211860000Y-119262042D01*
X211860000Y-119538750D01*
X212018750Y-119697500D01*
X212868000Y-119697500D01*
X212868000Y-119951500D01*
X212018750Y-119951500D01*
X211860000Y-120110250D01*
X211860000Y-120386958D01*
X211860000Y-120512042D01*
X211884403Y-120634723D01*
X211932270Y-120750285D01*
X212001763Y-120854289D01*
X212090211Y-120942737D01*
X212194215Y-121012230D01*
X212309777Y-121060097D01*
X212432458Y-121084500D01*
X212709250Y-121084500D01*
X212868000Y-120925750D01*
X212868000Y-127751576D01*
X210993000Y-127948646D01*
X210993000Y-118218542D01*
X210993000Y-118093458D01*
X210993000Y-117666750D01*
X210993000Y-117095250D01*
X210993000Y-116668542D01*
X210993000Y-116543458D01*
X210968597Y-116420777D01*
X210920730Y-116305215D01*
X210851237Y-116201211D01*
X210762789Y-116112763D01*
X210658785Y-116043270D01*
X210543223Y-115995403D01*
X210420542Y-115971000D01*
X210343750Y-115971000D01*
X210185000Y-116129750D01*
X210185000Y-117254000D01*
X210834250Y-117254000D01*
X210993000Y-117095250D01*
X210993000Y-117666750D01*
X210834250Y-117508000D01*
X210185000Y-117508000D01*
X210185000Y-118632250D01*
X210343750Y-118791000D01*
X210420542Y-118791000D01*
X210543223Y-118766597D01*
X210658785Y-118718730D01*
X210762789Y-118649237D01*
X210851237Y-118560789D01*
X210920730Y-118456785D01*
X210968597Y-118341223D01*
X210993000Y-118218542D01*
X210993000Y-127948646D01*
X210771500Y-127971927D01*
X210771500Y-123600042D01*
X210771500Y-123473250D01*
X210612750Y-123314500D01*
X209613500Y-123314500D01*
X209613500Y-124013750D01*
X209772250Y-124172500D01*
X210073958Y-124172500D01*
X210199042Y-124172500D01*
X210321723Y-124148097D01*
X210437285Y-124100230D01*
X210541289Y-124030737D01*
X210629737Y-123942289D01*
X210699230Y-123838285D01*
X210747097Y-123722723D01*
X210771500Y-123600042D01*
X210771500Y-127971927D01*
X209359500Y-128120333D01*
X209359500Y-124013750D01*
X209359500Y-123314500D01*
X208360250Y-123314500D01*
X208216500Y-123458250D01*
X208072750Y-123314500D01*
X207073500Y-123314500D01*
X207073500Y-124013750D01*
X207232250Y-124172500D01*
X207533958Y-124172500D01*
X207659042Y-124172500D01*
X207781723Y-124148097D01*
X207897285Y-124100230D01*
X208001289Y-124030737D01*
X208089737Y-123942289D01*
X208159230Y-123838285D01*
X208207097Y-123722723D01*
X208216500Y-123675451D01*
X208225903Y-123722723D01*
X208273770Y-123838285D01*
X208343263Y-123942289D01*
X208431711Y-124030737D01*
X208535715Y-124100230D01*
X208651277Y-124148097D01*
X208773958Y-124172500D01*
X208899042Y-124172500D01*
X209200750Y-124172500D01*
X209359500Y-124013750D01*
X209359500Y-128120333D01*
X208448084Y-128216127D01*
X206819500Y-128067914D01*
X206819500Y-124013750D01*
X206819500Y-123314500D01*
X205820250Y-123314500D01*
X205676500Y-123458250D01*
X205532750Y-123314500D01*
X204533500Y-123314500D01*
X204533500Y-124013750D01*
X204692250Y-124172500D01*
X204993958Y-124172500D01*
X205119042Y-124172500D01*
X205241723Y-124148097D01*
X205357285Y-124100230D01*
X205461289Y-124030737D01*
X205549737Y-123942289D01*
X205619230Y-123838285D01*
X205667097Y-123722723D01*
X205676500Y-123675451D01*
X205685903Y-123722723D01*
X205733770Y-123838285D01*
X205803263Y-123942289D01*
X205891711Y-124030737D01*
X205995715Y-124100230D01*
X206111277Y-124148097D01*
X206233958Y-124172500D01*
X206359042Y-124172500D01*
X206660750Y-124172500D01*
X206819500Y-124013750D01*
X206819500Y-128067914D01*
X204279500Y-127836757D01*
X204279500Y-124013750D01*
X204279500Y-123314500D01*
X203280250Y-123314500D01*
X203121500Y-123473250D01*
X203121500Y-123600042D01*
X203145903Y-123722723D01*
X203193770Y-123838285D01*
X203263263Y-123942289D01*
X203351711Y-124030737D01*
X203455715Y-124100230D01*
X203571277Y-124148097D01*
X203693958Y-124172500D01*
X203819042Y-124172500D01*
X204120750Y-124172500D01*
X204279500Y-124013750D01*
X204279500Y-127836757D01*
X203768472Y-127790250D01*
X201601294Y-127152414D01*
X201601294Y-121161637D01*
X201584968Y-121037624D01*
X201544761Y-120919177D01*
X201482219Y-120810852D01*
X198982219Y-116480725D01*
X198899745Y-116386681D01*
X198800509Y-116310535D01*
X198688325Y-116255211D01*
X198567503Y-116222837D01*
X198442686Y-116214657D01*
X198318673Y-116230983D01*
X198200226Y-116271190D01*
X198091901Y-116333732D01*
X193761774Y-118833732D01*
X193667730Y-118916206D01*
X193591584Y-119015442D01*
X193536260Y-119127626D01*
X193525270Y-119168640D01*
X188468000Y-114111370D01*
X188468000Y-108306197D01*
X192318226Y-106083268D01*
X192412270Y-106000794D01*
X192488416Y-105901558D01*
X192543740Y-105789374D01*
X192576114Y-105668552D01*
X192584294Y-105543735D01*
X192567968Y-105419722D01*
X192527761Y-105301275D01*
X192465219Y-105192950D01*
X190616044Y-101990086D01*
X190835590Y-101770540D01*
X190912844Y-101787526D01*
X191174300Y-101793003D01*
X191431840Y-101747592D01*
X191675654Y-101653022D01*
X191896457Y-101512897D01*
X192085837Y-101332552D01*
X192236581Y-101118858D01*
X192342948Y-100879955D01*
X192400886Y-100624941D01*
X192405057Y-100326244D01*
X192354262Y-100069711D01*
X192254607Y-99827931D01*
X192109888Y-99610111D01*
X191925618Y-99424549D01*
X191708814Y-99278313D01*
X191467735Y-99176973D01*
X191211563Y-99124388D01*
X190950057Y-99122563D01*
X190693176Y-99171565D01*
X190450706Y-99269530D01*
X190231881Y-99412725D01*
X190045037Y-99595695D01*
X189897291Y-99811473D01*
X189794270Y-100051839D01*
X189739899Y-100307637D01*
X189736247Y-100569124D01*
X189756467Y-100679297D01*
X189671325Y-100637309D01*
X189550503Y-100604935D01*
X189425686Y-100596755D01*
X189301673Y-100613081D01*
X189183226Y-100653288D01*
X189074901Y-100715830D01*
X184744774Y-103215830D01*
X184650730Y-103298304D01*
X184574584Y-103397540D01*
X184519260Y-103509724D01*
X184486886Y-103630546D01*
X184478706Y-103755363D01*
X184495032Y-103879376D01*
X184535239Y-103997823D01*
X184597781Y-104106148D01*
X186944000Y-108169918D01*
X186944000Y-114427000D01*
X186950874Y-114497113D01*
X186957004Y-114567170D01*
X186958120Y-114571012D01*
X186958512Y-114575007D01*
X186978877Y-114642459D01*
X186998494Y-114709982D01*
X187000337Y-114713537D01*
X187001496Y-114717376D01*
X187034556Y-114779553D01*
X187066933Y-114842014D01*
X187069431Y-114845144D01*
X187071314Y-114848684D01*
X187115800Y-114903230D01*
X187159714Y-114958240D01*
X187165212Y-114963814D01*
X187165307Y-114963931D01*
X187165414Y-114964020D01*
X187167185Y-114965815D01*
X193007636Y-120806266D01*
X193062050Y-120850963D01*
X193115946Y-120896187D01*
X193119453Y-120898115D01*
X193122554Y-120900662D01*
X193184619Y-120933940D01*
X193246267Y-120967832D01*
X193250087Y-120969043D01*
X193253618Y-120970937D01*
X193320915Y-120991511D01*
X193388022Y-121012799D01*
X193392005Y-121013245D01*
X193395836Y-121014417D01*
X193465823Y-121021526D01*
X193535812Y-121029377D01*
X193543648Y-121029431D01*
X193543791Y-121029446D01*
X193543924Y-121029433D01*
X193546451Y-121029451D01*
X194368454Y-121029451D01*
X196114781Y-124054177D01*
X196197255Y-124148221D01*
X196296491Y-124224367D01*
X196408675Y-124279691D01*
X196529497Y-124312065D01*
X196654314Y-124320245D01*
X196778327Y-124303919D01*
X196896774Y-124263712D01*
X197005099Y-124201170D01*
X201335226Y-121701170D01*
X201429270Y-121618696D01*
X201505416Y-121519460D01*
X201560740Y-121407276D01*
X201593114Y-121286454D01*
X201601294Y-121161637D01*
X201601294Y-127152414D01*
X199260702Y-126463541D01*
X195096477Y-124286536D01*
X191434403Y-121342153D01*
X188413976Y-117742549D01*
X186150239Y-113624826D01*
X184729419Y-109145829D01*
X184202146Y-104445089D01*
X184200000Y-104137653D01*
X184200000Y-99958503D01*
X184218743Y-99767336D01*
X184264532Y-99615678D01*
X184338904Y-99475804D01*
X184439030Y-99353038D01*
X184561093Y-99252059D01*
X184700449Y-99176709D01*
X184851780Y-99129864D01*
X185040782Y-99110000D01*
X201194917Y-99110000D01*
X201079777Y-99132903D01*
X200964215Y-99180770D01*
X200860211Y-99250263D01*
X200771763Y-99338711D01*
X200702270Y-99442715D01*
X200654403Y-99558277D01*
X200630000Y-99680958D01*
X200630000Y-99695000D01*
X200024809Y-99695000D01*
X200000597Y-99573277D01*
X199952730Y-99457715D01*
X199883237Y-99353711D01*
X199794789Y-99265263D01*
X199690785Y-99195770D01*
X199575223Y-99147903D01*
X199452542Y-99123500D01*
X199327458Y-99123500D01*
X197930458Y-99123500D01*
X197807777Y-99147903D01*
X197692215Y-99195770D01*
X197588211Y-99265263D01*
X197499763Y-99353711D01*
X197430270Y-99457715D01*
X197382403Y-99573277D01*
X197358000Y-99695958D01*
X197358000Y-99821042D01*
X197358000Y-101218042D01*
X197382403Y-101340723D01*
X197430270Y-101456285D01*
X197499763Y-101560289D01*
X197588211Y-101648737D01*
X197692215Y-101718230D01*
X197807777Y-101766097D01*
X197930458Y-101790500D01*
X198055542Y-101790500D01*
X199452542Y-101790500D01*
X199575223Y-101766097D01*
X199690785Y-101718230D01*
X199794789Y-101648737D01*
X199883237Y-101560289D01*
X199952730Y-101456285D01*
X200000597Y-101340723D01*
X200024809Y-101219000D01*
X200652468Y-101219000D01*
X200654403Y-101228723D01*
X200702270Y-101344285D01*
X200771763Y-101448289D01*
X200860211Y-101536737D01*
X200964215Y-101606230D01*
X201079777Y-101654097D01*
X201202458Y-101678500D01*
X201327542Y-101678500D01*
X202027542Y-101678500D01*
X202150223Y-101654097D01*
X202265785Y-101606230D01*
X202369789Y-101536737D01*
X202458237Y-101448289D01*
X202527730Y-101344285D01*
X202565000Y-101254306D01*
X202602270Y-101344285D01*
X202671763Y-101448289D01*
X202760211Y-101536737D01*
X202864215Y-101606230D01*
X202979777Y-101654097D01*
X203102458Y-101678500D01*
X203227542Y-101678500D01*
X203927542Y-101678500D01*
X204050223Y-101654097D01*
X204089000Y-101638035D01*
X204089000Y-103021137D01*
X203979363Y-102811422D01*
X203796097Y-102583485D01*
X203572048Y-102395485D01*
X203315749Y-102254584D01*
X203036964Y-102166148D01*
X202746312Y-102133546D01*
X202725388Y-102133400D01*
X202404612Y-102133400D01*
X202113532Y-102161941D01*
X201833540Y-102246475D01*
X201575299Y-102383784D01*
X201348647Y-102568637D01*
X201162216Y-102793994D01*
X201023108Y-103051269D01*
X200936621Y-103330665D01*
X200906049Y-103621538D01*
X200932556Y-103912810D01*
X201015134Y-104193385D01*
X201150637Y-104452578D01*
X201333903Y-104680515D01*
X201557952Y-104868515D01*
X201617586Y-104901299D01*
X201575299Y-104923784D01*
X201348647Y-105108637D01*
X201162216Y-105333994D01*
X201023108Y-105591269D01*
X200936621Y-105870665D01*
X200906049Y-106161538D01*
X200932556Y-106452810D01*
X201015134Y-106733385D01*
X201150637Y-106992578D01*
X201333903Y-107220515D01*
X201557952Y-107408515D01*
X201617586Y-107441299D01*
X201575299Y-107463784D01*
X201348647Y-107648637D01*
X201162216Y-107873994D01*
X201023108Y-108131269D01*
X200936621Y-108410665D01*
X200906049Y-108701538D01*
X200932556Y-108992810D01*
X201015134Y-109273385D01*
X201150637Y-109532578D01*
X201333903Y-109760515D01*
X201557952Y-109948515D01*
X201617586Y-109981299D01*
X201575299Y-110003784D01*
X201348647Y-110188637D01*
X201162216Y-110413994D01*
X201121119Y-110490000D01*
X195523472Y-110490000D01*
X194473719Y-108671774D01*
X194391245Y-108577730D01*
X194292009Y-108501584D01*
X194179825Y-108446260D01*
X194059003Y-108413886D01*
X193934186Y-108405706D01*
X193810173Y-108422032D01*
X193691726Y-108462239D01*
X193583401Y-108524781D01*
X189253274Y-111024781D01*
X189159230Y-111107255D01*
X189083084Y-111206491D01*
X189027760Y-111318675D01*
X188995386Y-111439497D01*
X188987206Y-111564314D01*
X189003532Y-111688327D01*
X189043739Y-111806774D01*
X189106281Y-111915099D01*
X191606281Y-116245226D01*
X191688755Y-116339270D01*
X191787991Y-116415416D01*
X191900175Y-116470740D01*
X192020997Y-116503114D01*
X192145814Y-116511294D01*
X192269827Y-116494968D01*
X192388274Y-116454761D01*
X192496599Y-116392219D01*
X196826726Y-113892219D01*
X196920770Y-113809745D01*
X196996916Y-113710509D01*
X197052240Y-113598325D01*
X197084614Y-113477503D01*
X197092794Y-113352686D01*
X197076468Y-113228673D01*
X197036261Y-113110226D01*
X196973719Y-113001901D01*
X196403354Y-112014000D01*
X201120013Y-112014000D01*
X201150637Y-112072578D01*
X201333903Y-112300515D01*
X201557952Y-112488515D01*
X201617586Y-112521299D01*
X201575299Y-112543784D01*
X201348647Y-112728637D01*
X201162216Y-112953994D01*
X201023108Y-113211269D01*
X200936621Y-113490665D01*
X200906049Y-113781538D01*
X200932556Y-114072810D01*
X201015134Y-114353385D01*
X201150637Y-114612578D01*
X201333903Y-114840515D01*
X201557952Y-115028515D01*
X201617586Y-115061299D01*
X201575299Y-115083784D01*
X201348647Y-115268637D01*
X201162216Y-115493994D01*
X201023108Y-115751269D01*
X200936621Y-116030665D01*
X200906049Y-116321538D01*
X200932556Y-116612810D01*
X201015134Y-116893385D01*
X201150637Y-117152578D01*
X201333903Y-117380515D01*
X201557952Y-117568515D01*
X201814251Y-117709416D01*
X202093036Y-117797852D01*
X202383688Y-117830454D01*
X202404612Y-117830600D01*
X202725388Y-117830600D01*
X203016468Y-117802059D01*
X203296460Y-117717525D01*
X203554701Y-117580216D01*
X203781353Y-117395363D01*
X203967784Y-117170006D01*
X204106892Y-116912731D01*
X204193379Y-116633335D01*
X204223951Y-116342462D01*
X204197444Y-116051190D01*
X204114866Y-115770615D01*
X203979363Y-115511422D01*
X203796097Y-115283485D01*
X203572048Y-115095485D01*
X203512413Y-115062700D01*
X203554701Y-115040216D01*
X203781353Y-114855363D01*
X203967784Y-114630006D01*
X204008880Y-114554000D01*
X204027370Y-114554000D01*
X205486000Y-116012630D01*
X205486000Y-116169974D01*
X205454763Y-116201211D01*
X205385270Y-116305215D01*
X205337403Y-116420777D01*
X205313000Y-116543458D01*
X205313000Y-116668542D01*
X205313000Y-118218542D01*
X205334539Y-118326829D01*
X203867685Y-119793685D01*
X203822987Y-119848099D01*
X203777764Y-119901995D01*
X203775835Y-119905502D01*
X203773289Y-119908603D01*
X203740010Y-119970668D01*
X203706119Y-120032316D01*
X203704907Y-120036136D01*
X203703014Y-120039667D01*
X203682439Y-120106964D01*
X203661152Y-120174071D01*
X203660705Y-120178054D01*
X203659534Y-120181885D01*
X203652424Y-120251872D01*
X203645668Y-120312105D01*
X203571277Y-120326903D01*
X203455715Y-120374770D01*
X203351711Y-120444263D01*
X203263263Y-120532711D01*
X203193770Y-120636715D01*
X203145903Y-120752277D01*
X203121500Y-120874958D01*
X203121500Y-121000042D01*
X203121500Y-121700042D01*
X203145903Y-121822723D01*
X203193770Y-121938285D01*
X203263263Y-122042289D01*
X203351711Y-122130737D01*
X203455715Y-122200230D01*
X203545693Y-122237500D01*
X203455715Y-122274770D01*
X203351711Y-122344263D01*
X203263263Y-122432711D01*
X203193770Y-122536715D01*
X203145903Y-122652277D01*
X203121500Y-122774958D01*
X203121500Y-122901750D01*
X203280250Y-123060500D01*
X204279500Y-123060500D01*
X204279500Y-123040500D01*
X204533500Y-123040500D01*
X204533500Y-123060500D01*
X205532750Y-123060500D01*
X205676500Y-122916750D01*
X205820250Y-123060500D01*
X206819500Y-123060500D01*
X206819500Y-123040500D01*
X207073500Y-123040500D01*
X207073500Y-123060500D01*
X208072750Y-123060500D01*
X208216500Y-122916750D01*
X208360250Y-123060500D01*
X209359500Y-123060500D01*
X209359500Y-123040500D01*
X209613500Y-123040500D01*
X209613500Y-123060500D01*
X210612750Y-123060500D01*
X210771500Y-122901750D01*
X210771500Y-122774958D01*
X210747097Y-122652277D01*
X210699230Y-122536715D01*
X210629737Y-122432711D01*
X210541289Y-122344263D01*
X210437285Y-122274770D01*
X210347306Y-122237500D01*
X210437285Y-122200230D01*
X210541289Y-122130737D01*
X210629737Y-122042289D01*
X210699230Y-121938285D01*
X210747097Y-121822723D01*
X210771500Y-121700042D01*
X210771500Y-121574958D01*
X210771500Y-120874958D01*
X210747097Y-120752277D01*
X210699230Y-120636715D01*
X210629737Y-120532711D01*
X210541289Y-120444263D01*
X210437285Y-120374770D01*
X210321723Y-120326903D01*
X210246483Y-120311936D01*
X210241625Y-120262390D01*
X210235496Y-120192329D01*
X210234379Y-120188485D01*
X210233988Y-120184493D01*
X210213626Y-120117052D01*
X210194006Y-120049518D01*
X210192162Y-120045962D01*
X210191004Y-120042124D01*
X210157954Y-119979967D01*
X210125567Y-119917485D01*
X210123066Y-119914352D01*
X210121186Y-119910816D01*
X210076716Y-119856291D01*
X210032786Y-119801260D01*
X210027287Y-119795685D01*
X210027193Y-119795569D01*
X210027085Y-119795479D01*
X210025315Y-119793685D01*
X209550000Y-119318370D01*
X209550000Y-118757162D01*
X209572777Y-118766597D01*
X209695458Y-118791000D01*
X209772250Y-118791000D01*
X209931000Y-118632250D01*
X209931000Y-117508000D01*
X209911000Y-117508000D01*
X209911000Y-117254000D01*
X209931000Y-117254000D01*
X209931000Y-116129750D01*
X209873219Y-116071969D01*
X209944268Y-115912392D01*
X209991170Y-115705952D01*
X209994546Y-115464150D01*
X209953426Y-115256481D01*
X209872754Y-115060753D01*
X209755600Y-114884423D01*
X209606428Y-114734207D01*
X209501917Y-114663713D01*
X209611630Y-114554000D01*
X212550013Y-114554000D01*
X212580637Y-114612578D01*
X212763903Y-114840515D01*
X212987952Y-115028515D01*
X213047586Y-115061299D01*
X213005299Y-115083784D01*
X212778647Y-115268637D01*
X212592216Y-115493994D01*
X212453108Y-115751269D01*
X212366621Y-116030665D01*
X212336049Y-116321538D01*
X212362556Y-116612810D01*
X212445134Y-116893385D01*
X212580637Y-117152578D01*
X212763903Y-117380515D01*
X212987952Y-117568515D01*
X213244251Y-117709416D01*
X213523036Y-117797852D01*
X213813688Y-117830454D01*
X213834612Y-117830600D01*
X214155388Y-117830600D01*
X214446468Y-117802059D01*
X214726460Y-117717525D01*
X214984701Y-117580216D01*
X215211353Y-117395363D01*
X215397784Y-117170006D01*
X215536892Y-116912731D01*
X215623379Y-116633335D01*
X215653951Y-116342462D01*
X215627444Y-116051190D01*
X215544866Y-115770615D01*
X215409363Y-115511422D01*
X215226097Y-115283485D01*
X215002048Y-115095485D01*
X214942413Y-115062700D01*
X214984701Y-115040216D01*
X215211353Y-114855363D01*
X215397784Y-114630006D01*
X215536892Y-114372731D01*
X215623379Y-114093335D01*
X215653951Y-113802462D01*
X215653951Y-108722462D01*
X215627444Y-108431190D01*
X215544866Y-108150615D01*
X215409363Y-107891422D01*
X215226097Y-107663485D01*
X215002048Y-107475485D01*
X214942413Y-107442700D01*
X214984701Y-107420216D01*
X215211353Y-107235363D01*
X215397784Y-107010006D01*
X215536892Y-106752731D01*
X215623379Y-106473335D01*
X215653951Y-106182462D01*
X215627444Y-105891190D01*
X215544866Y-105610615D01*
X215409363Y-105351422D01*
X215226097Y-105123485D01*
X215002048Y-104935485D01*
X214942413Y-104902700D01*
X214984701Y-104880216D01*
X215211353Y-104695363D01*
X215397784Y-104470006D01*
X215536892Y-104212731D01*
X215623379Y-103933335D01*
X215653951Y-103642462D01*
X215627444Y-103351190D01*
X215544866Y-103070615D01*
X215409363Y-102811422D01*
X215226097Y-102583485D01*
X215002048Y-102395485D01*
X214745749Y-102254584D01*
X214466964Y-102166148D01*
X214176312Y-102133546D01*
X214155388Y-102133400D01*
X213834612Y-102133400D01*
X213543532Y-102161941D01*
X213263540Y-102246475D01*
X213005299Y-102383784D01*
X212778647Y-102568637D01*
X212592216Y-102793994D01*
X212453108Y-103051269D01*
X212366621Y-103330665D01*
X212336049Y-103621538D01*
X212362556Y-103912810D01*
X212445134Y-104193385D01*
X212580637Y-104452578D01*
X212763903Y-104680515D01*
X212987952Y-104868515D01*
X213047586Y-104901299D01*
X213005299Y-104923784D01*
X212778647Y-105108637D01*
X212592216Y-105333994D01*
X212453108Y-105591269D01*
X212366621Y-105870665D01*
X212336049Y-106161538D01*
X212362556Y-106452810D01*
X212445134Y-106733385D01*
X212580637Y-106992578D01*
X212763903Y-107220515D01*
X212987952Y-107408515D01*
X213047586Y-107441299D01*
X213005299Y-107463784D01*
X212778647Y-107648637D01*
X212592216Y-107873994D01*
X212453108Y-108131269D01*
X212366621Y-108410665D01*
X212336049Y-108701538D01*
X212362556Y-108992810D01*
X212445134Y-109273385D01*
X212580637Y-109532578D01*
X212763903Y-109760515D01*
X212987952Y-109948515D01*
X213049872Y-109982555D01*
X212843271Y-110133514D01*
X212644267Y-110349965D01*
X212491314Y-110601081D01*
X212390291Y-110877211D01*
X212387642Y-110892974D01*
X212508783Y-111125000D01*
X213868000Y-111125000D01*
X213868000Y-111105000D01*
X214122000Y-111105000D01*
X214122000Y-111125000D01*
X215481217Y-111125000D01*
X215602358Y-110892974D01*
X215599709Y-110877211D01*
X215498686Y-110601081D01*
X215345733Y-110349965D01*
X215146729Y-110133514D01*
X214941205Y-109983343D01*
X214984701Y-109960216D01*
X215211353Y-109775363D01*
X215397784Y-109550006D01*
X215536892Y-109292731D01*
X215623379Y-109013335D01*
X215653951Y-108722462D01*
X215653951Y-113802462D01*
X215627444Y-113511190D01*
X215544866Y-113230615D01*
X215409363Y-112971422D01*
X215226097Y-112743485D01*
X215002048Y-112555485D01*
X214940127Y-112521444D01*
X215146729Y-112370486D01*
X215345733Y-112154035D01*
X215498686Y-111902919D01*
X215599709Y-111626789D01*
X215602358Y-111611026D01*
X215481217Y-111379000D01*
X214122000Y-111379000D01*
X214122000Y-111399000D01*
X213868000Y-111399000D01*
X213868000Y-111379000D01*
X212508783Y-111379000D01*
X212387642Y-111611026D01*
X212390291Y-111626789D01*
X212491314Y-111902919D01*
X212644267Y-112154035D01*
X212843271Y-112370486D01*
X213048794Y-112520656D01*
X213005299Y-112543784D01*
X212778647Y-112728637D01*
X212592216Y-112953994D01*
X212551119Y-113030000D01*
X210931824Y-113030000D01*
X210968597Y-112941223D01*
X210993000Y-112818542D01*
X210993000Y-112693458D01*
X210993000Y-111143458D01*
X210968597Y-111020777D01*
X210920730Y-110905215D01*
X210851237Y-110801211D01*
X210820000Y-110769974D01*
X210820000Y-110516000D01*
X211511542Y-110516000D01*
X211634223Y-110491597D01*
X211749785Y-110443730D01*
X211853789Y-110374237D01*
X211942237Y-110285789D01*
X212011730Y-110181785D01*
X212059597Y-110066223D01*
X212084000Y-109943542D01*
X212084000Y-109818458D01*
X212084000Y-108618458D01*
X212059597Y-108495777D01*
X212011730Y-108380215D01*
X211978845Y-108331000D01*
X212011730Y-108281785D01*
X212059597Y-108166223D01*
X212084000Y-108043542D01*
X212084000Y-107918458D01*
X212084000Y-106718458D01*
X212059597Y-106595777D01*
X212011730Y-106480215D01*
X211942237Y-106376211D01*
X211853789Y-106287763D01*
X211836000Y-106275876D01*
X211836000Y-101727000D01*
X211829126Y-101656894D01*
X211822996Y-101586829D01*
X211822624Y-101585550D01*
X211822503Y-101584215D01*
X211821748Y-101581652D01*
X211821488Y-101578993D01*
X211801126Y-101511552D01*
X211781506Y-101444018D01*
X211780891Y-101442832D01*
X211780514Y-101441550D01*
X211779276Y-101439183D01*
X211778504Y-101436624D01*
X211745454Y-101374467D01*
X211713067Y-101311985D01*
X211712231Y-101310938D01*
X211711614Y-101309757D01*
X211709940Y-101307676D01*
X211708686Y-101305316D01*
X211664216Y-101250791D01*
X211620286Y-101195760D01*
X211618510Y-101193959D01*
X211618428Y-101193857D01*
X211618320Y-101193766D01*
X211614784Y-101190181D01*
X211614693Y-101190069D01*
X211614589Y-101189983D01*
X211612815Y-101188184D01*
X210898813Y-100474182D01*
X210979822Y-100422773D01*
X211133130Y-100276780D01*
X211255161Y-100103790D01*
X211341268Y-99910392D01*
X211388170Y-99703952D01*
X211391546Y-99462150D01*
X211350426Y-99254481D01*
X211290876Y-99110000D01*
X231511496Y-99110000D01*
X231702663Y-99128743D01*
X231854321Y-99174532D01*
X231994195Y-99248904D01*
X232116961Y-99349030D01*
X232217940Y-99471093D01*
X232293290Y-99610449D01*
X232340135Y-99761780D01*
X232360000Y-99950782D01*
X232360000Y-104106495D01*
M02*
